<svg id="Group_956" data-name="Group 956" xmlns="http://www.w3.org/2000/svg" xmlns:xlink="http://www.w3.org/1999/xlink" width="16.067" height="16.057" viewBox="0 0 16.067 16.057">
  <defs>
    <clipPath id="clip-path">
      <rect id="Rectangle_2374" data-name="Rectangle 2374" width="16.067" height="16.057" transform="translate(0 0)" fill="#49cbc9"/>
    </clipPath>
  </defs>
  <g id="Group_956-2" data-name="Group 956" transform="translate(0 0)" clip-path="url(#clip-path)">
    <path id="Path_1280" data-name="Path 1280" d="M813.444,735.612c-.125-.066-.109-.068-.109-.19q0-1.765,0-3.531,0-1.713,0-3.426t0-3.426c0-.13.026-.164.168-.164q1.194,0,2.389,0h.529c.1,0,.124.027.125.124,0,.114,0,.227,0,.341q0,.446,0,.891c0,.018,0,.035.007.072.027-.032.045-.051.059-.073a3.856,3.856,0,0,1,.477-.58,3.5,3.5,0,0,1,1.745-.943,4.6,4.6,0,0,1,.577-.084,4.912,4.912,0,0,1,.758-.009,4.564,4.564,0,0,1,1.538.349,2.89,2.89,0,0,1,1.484,1.462,5.117,5.117,0,0,1,.388,1.23,4.934,4.934,0,0,1,.088.738q.018.431.041.862c.026.489.024.979.024,1.469q0,2.357,0,4.715c0,.023,0,.046,0,.07,0,.054-.021.076-.074.082a.757.757,0,0,1-.09,0h-1.6l-1.177,0a.573.573,0,0,0-.088.014h-.209c-.111-.058-.106-.039-.11-.187,0-.019,0-.037,0-.056,0-.559,0-1.119,0-1.678q0-1.915-.005-3.829a5,5,0,0,0-.033-.625,2.963,2.963,0,0,0-.189-.746,1.535,1.535,0,0,0-.351-.539,1.431,1.431,0,0,0-.9-.381,2.684,2.684,0,0,0-.707.025,1.58,1.58,0,0,0-1.264,1,3.122,3.122,0,0,0-.222.965c-.02.249-.029.5-.03.751q0,2.531,0,5.062c0,.037,0,.074,0,.111,0,.082-.026.106-.11.108h-.084l-2.66,0a.643.643,0,0,0-.094.014Z" transform="translate(-807.665 -719.556)" fill="#49cbc9"/>
    <path id="Path_1281" data-name="Path 1281" d="M36.571,774.132c-.107-.062-.107-.062-.107-.19q0-5.2,0-10.391c0-.026,0-.051,0-.076.005-.054.026-.074.08-.076.035,0,.07,0,.1,0h3.057c.077,0,.109.033.117.109,0,.03,0,.06,0,.09q0,4.471,0,8.942,0,.693,0,1.386c0,.021,0,.042,0,.063a.117.117,0,0,1-.084.128c-.008,0-.014.011-.022.016H39.5a.5.5,0,0,0-.08-.014q-.244,0-.487,0l-2.089,0a.4.4,0,0,0-.074.014Z" transform="translate(-36.21 -758.075)" fill="#49cbc9"/>
    <path id="Path_1282" data-name="Path 1282" d="M0,1.757A1.89,1.89,0,0,1,.6.509,1.845,1.845,0,0,1,1.609.024a1.927,1.927,0,0,1,1.247.2,1.852,1.852,0,0,1,.964,1.283,1.881,1.881,0,0,1-.552,1.832,1.82,1.82,0,0,1-1.045.509,2.192,2.192,0,0,1-.318.024,1.877,1.877,0,0,1-1.189-.42A1.888,1.888,0,0,1,.021,2.29C.011,2.233.01,2.175,0,2.118" transform="translate(0 0.003)" fill="#49cbc9"/>
  </g>
</svg>
