<svg id="Group_952" data-name="Group 952" xmlns="http://www.w3.org/2000/svg" xmlns:xlink="http://www.w3.org/1999/xlink" width="17.578" height="14.328" viewBox="0 0 17.578 14.328">
  <defs>
    <clipPath id="clip-path">
      <rect id="Rectangle_2373" data-name="Rectangle 2373" width="17.578" height="14.328" fill="#49cbc9"/>
    </clipPath>
  </defs>
  <g id="Group_951" data-name="Group 951" clip-path="url(#clip-path)">
    <path id="Path_1279" data-name="Path 1279" d="M1.189.67a10.337,10.337,0,0,0,7.42,3.771c-.014-.373-.048-.727-.036-1.079A3.6,3.6,0,0,1,11.179.139a3.564,3.564,0,0,1,3.529.9.231.231,0,0,0,.241.068A7.34,7.34,0,0,0,16.92.365c.049-.027.1-.051.177-.09a2.886,2.886,0,0,1-.587,1.1c-.268.307-.578.578-.864.859a6.966,6.966,0,0,0,1.894-.521l.038.042c-.286.336-.558.685-.863,1a9.714,9.714,0,0,1-.8.7.277.277,0,0,0-.118.244,10.421,10.421,0,0,1-1.939,6.354A9.63,9.63,0,0,1,7.482,14.15a10.414,10.414,0,0,1-5.54-.465A10.116,10.116,0,0,1,.077,12.77C.06,12.759.045,12.744,0,12.708a7.359,7.359,0,0,0,5.3-1.492A3.7,3.7,0,0,1,1.93,8.7a3.945,3.945,0,0,0,1.615-.076A3.635,3.635,0,0,1,1.468,7.343a3.55,3.55,0,0,1-.793-2.3,3.706,3.706,0,0,0,1.618.44,3.628,3.628,0,0,1-1.5-2.2A3.583,3.583,0,0,1,1.189.67" transform="translate(0 -0.001)" fill="#49cbc9"/>
  </g>
</svg>
