<svg id="Group_950" data-name="Group 950" xmlns="http://www.w3.org/2000/svg" xmlns:xlink="http://www.w3.org/1999/xlink" width="9.061" height="19.537" viewBox="0 0 9.061 19.537">
  <defs>
    <clipPath id="clip-path">
      <rect id="Rectangle_2372" data-name="Rectangle 2372" width="9.061" height="19.537" fill="#49cbc9"/>
    </clipPath>
  </defs>
  <g id="Group_949" data-name="Group 949" clip-path="url(#clip-path)">
    <path id="Path_1278" data-name="Path 1278" d="M5.98,19.537H1.921V9.772H0V6.318H1.917c0-.109,0-.2,0-.281.008-.807-.028-1.618.034-2.421A3.69,3.69,0,0,1,3.727.523,3.512,3.512,0,0,1,5.469.012C6.638-.011,7.808.006,8.994.006V3.343H8.768c-.634,0-1.268,0-1.9,0a.792.792,0,0,0-.884.806c-.025.708-.006,1.418-.006,2.156H9.062L8.709,9.763H5.98Z" transform="translate(-0.001 0)" fill="#49cbc9"/>
  </g>
</svg>
