<svg xmlns="http://www.w3.org/2000/svg" xmlns:xlink="http://www.w3.org/1999/xlink" width="704" height="380.773" viewBox="0 0 704 380.773">
  <defs>
    <clipPath id="clip-path">
      <rect id="Rectangle_2433" data-name="Rectangle 2433" width="314.094" height="314.305" fill="none"/>
    </clipPath>
  </defs>
  <g id="Group_1196" data-name="Group 1196" transform="translate(-262 -1220.172)">
    <ellipse id="Ellipse_1192" data-name="Ellipse 1192" cx="190.387" cy="190.386" rx="190.387" ry="190.386" transform="translate(410.326 1220.172)" fill="#fafbff"/>
    <g id="Group_1010" data-name="Group 1010" transform="translate(444.719 1251.747)">
      <g id="Group_1009" data-name="Group 1009" transform="translate(0)">
        <g id="Group_1008" data-name="Group 1008" clip-path="url(#clip-path)">
          <path id="Path_1285" data-name="Path 1285" d="M157.154,157.151l156.935,8.225A157.15,157.15,0,0,1,.219,148.926C4.585,65.634,73.748,0,157.154,0Z" transform="translate(0 -1.013)" fill="#bcf0ef"/>
          <path id="Path_1286" data-name="Path 1286" d="M121.51,151.521,121.941,9.51c78.1,0,141.117,63.308,141.117,141.4,0,2.967-.039,4.436-.195,7.4Z" transform="translate(35.235 2.758)" fill="#dfdfdf"/>
          <path id="Path_1287" data-name="Path 1287" d="M263.024,122.786l15.856,9.529-157.444-8.251L121.554,114Z" transform="translate(35.214 32.045)" fill="#49cbc9"/>
        </g>
      </g>
    </g>
    <text id="_77_" data-name="77%" transform="translate(578.459 1449.71)" fill="#49cbc9" font-size="20" font-family="SegoeUI-Bold, Segoe UI" font-weight="700" letter-spacing="0.025em"><tspan x="0" y="22">77%</tspan></text>
    <text id="_23_" data-name="23%" transform="translate(639.681 1342.247)" fill="#49cbc9" font-size="20" font-family="SegoeUI-Bold, Segoe UI" font-weight="700" letter-spacing="0.025em"><tspan x="0" y="22">23%</tspan></text>
    <line id="Line_1250" data-name="Line 1250" x1="98.852" transform="translate(386.856 1438.022)" fill="none" stroke="#49cbc9" stroke-width="1.5"/>
    <line id="Line_1251" data-name="Line 1251" x1="98.852" transform="translate(709.765 1351.167)" fill="none" stroke="#49cbc9" stroke-width="1.5"/>
    <text id="Programming" transform="translate(262 1430)" font-size="14" font-family="SegoeUI, Segoe UI" letter-spacing="0.025em"><tspan x="6.34" y="15">Programming</tspan></text>
    <text id="Administration_and_fundraising" data-name="Administration
and fundraising" transform="translate(834 1330)" font-size="14" font-family="SegoeUI, Segoe UI" letter-spacing="0.025em"><tspan x="0" y="15">Administration</tspan><tspan x="0" y="34">and fundraising</tspan></text>
  </g>
</svg>
