<svg id="Group_969" data-name="Group 969" xmlns="http://www.w3.org/2000/svg" width="45.519" height="35.336" viewBox="0 0 45.519 35.336">
  <circle id="Ellipse_3" data-name="Ellipse 3" cx="4.485" cy="4.485" r="4.485" transform="translate(24.904 2.184)" fill="#fff"/>
  <path id="Path_4" data-name="Path 4" d="M745.06,730.329s12.923-7.561,8.134-13.11c-2.809-3.255-7.656-.365-7.378,3.657.466,6.745-5.483,10.493-5.483,10.493Z" transform="translate(-718.223 -702.166)" fill="#fff"/>
  <path id="Path_5" data-name="Path 5" d="M710.881,754.293s4.31-3.3,7.679-.242a6.1,6.1,0,0,1,1.819,4.843l-2.852,2.7Z" transform="translate(-696.214 -729.769)" fill="#fff"/>
  <path id="Path_6" data-name="Path 6" d="M674.533,750.571s8.819-9.539,16.687-11.1,7.927.188,6.314,1.746-11.1,2.6-23,13.508c0,0-6.487-8.546-16.724-11.152-7.589-1.932-4.468-3.36-3.495-3.451C654.315,740.124,666.831,737.447,674.533,750.571Z" transform="translate(-652.85 -719.391)" fill="#fff"/>
  <circle id="Ellipse_4" data-name="Ellipse 4" cx="3.49" cy="3.49" r="3.49" transform="translate(15.828 14.681)" fill="#fff"/>
  <ellipse id="Ellipse_5" data-name="Ellipse 5" cx="2.105" cy="1.824" rx="2.105" ry="1.824" transform="translate(19.467 31.687)" fill="#fff"/>
  <path id="Path_7" data-name="Path 7" d="M674.492,663.076l2.4-1.264-.459,2.678,1.945,1.9-2.688.391-1.2,2.436-1.2-2.436-2.688-.391,1.945-1.9-.459-2.678Z" transform="translate(-666.115 -661.812)" fill="#fff"/>
</svg>
