<svg id="Group_1092" data-name="Group 1092" xmlns="http://www.w3.org/2000/svg" xmlns:xlink="http://www.w3.org/1999/xlink" width="282.118" height="201" viewBox="0 0 282.118 201">
  <defs>
    <clipPath id="clip-path">
      <rect id="Rectangle_2572" data-name="Rectangle 2572" width="282.118" height="201" fill="none"/>
    </clipPath>
  </defs>
  <g id="Group_1082" data-name="Group 1082" clip-path="url(#clip-path)">
    <path id="Path_1473" data-name="Path 1473" d="M65.693,65.12C39.9,65.048,18.782,78.066,20.853,98.837S29.572,129.3,8.991,145.766,6.107,198.229,32.4,195.894s170.623-22.74,198.472-17.512,55.807-1.08,50.621-32.617S252.133,131.9,253.434,98.837,249.4,40.246,205.239,26.081s-67.3-5.623-88.133,10.352S91.485,65.192,65.693,65.12" transform="translate(0 -1.884)" fill="#f8f9ff"/>
    <path id="Path_1474" data-name="Path 1474" d="M57.033,106.958l5.873,6.484a23.891,23.891,0,0,0,22.708,8.467S98.076,119.285,98.32,105L96.946,90.432,95.105,78.985l-16.853.862Z" transform="translate(-5.687 -7.876)" fill="#fff"/>
    <path id="Path_1475" data-name="Path 1475" d="M23.84,195.139s3.7-34.545,15.345-48.583,23.217-18.9,28.6-18.85l1.356-1.433,14.954.562s11.781,2.569,16.732,7.649a134.34,134.34,0,0,1,10.747,13.287s5.909,12.158,6.7,16.942l.6,1.743,13.771,7.21L127.8,187.507l-13.351-2.9a25.1,25.1,0,0,1-13.241-9.316l-1.639-2.435-7.525.262L82.9,174.328l-8.356,2.4L56.732,201.076s-31.366,5.11-32.892-5.937" transform="translate(-2.377 -12.591)" fill="#fff"/>
    <path id="Path_1476" data-name="Path 1476" d="M245.237,120.4s-4.837,8.123-9.441,8.759l36.8,35.649L270.219,189.6s11.84-4.738,12.657-11.553,1.843-12.189-2.971-24.115-13.462-18.782-17.652-21.891-17.016-11.64-17.016-11.64" transform="translate(-23.512 -12.005)" fill="#fff"/>
    <path id="Path_1477" data-name="Path 1477" d="M178.678,66.512l-3.36,8.3,35.8,29.971,12.942,6.569,16.6-2.722s5.2-15-1.886-25.863Z" transform="translate(-17.481 -6.632)" fill="#fff"/>
    <path id="Path_1478" data-name="Path 1478" d="M139.924,170.926s6.191-7.913,13.971-17.6c10.778-13.417,23.738-30.555,40.313-30.5,24,.086,47.994,10.24,47.994,10.24s32.832,16.738,28.32,42.329c0,0-1.5,14.011-13.032,16.418s-40.844,1.563-40.844,1.563l-50.3-5.72Z" transform="translate(-13.952 -12.248)" fill="#dec7fa"/>
    <path id="Path_1479" data-name="Path 1479" d="M197.534,196.392l-.931.424a14.6,14.6,0,0,1-1.522.73l.056.092a26.245,26.245,0,0,1,2.408-1.231Z" transform="translate(-19.452 -19.583)" fill="#71e2da"/>
    <path id="Path_1480" data-name="Path 1480" d="M192.616,193.478c.731-.4,1.525-.784,2.308-1.133l-.023-.036c-.952.349-1.844.669-2.46.878Z" transform="translate(-19.189 -19.176)" fill="#71e2da"/>
    <path id="Path_1481" data-name="Path 1481" d="M189.969,189.175c.2-.159.4-.312.6-.455.457-.319.928-.624,1.407-.921l-3.186-4.942a2.162,2.162,0,0,0-1.713-.987l-1.548-.074Z" transform="translate(-18.5 -18.127)" fill="#71e2da"/>
    <path id="Path_1482" data-name="Path 1482" d="M186.627,199.8a1.784,1.784,0,0,1-.931,0c-.883-.163-1.652.332-1.462-.544a1.852,1.852,0,0,1,.5-.835,3.506,3.506,0,0,1,.643-.447l-.553-1.451c-.849.4-1.939.958-2.788,1.359l5.4,9.6-.282,1.586s-.447,1.086-.646,1.048l-1.042.837a108.107,108.107,0,0,0-27.773-3.539c-8.173.141-26.074.971-32.382,4.016l.017,2.82-.017-2.82a210.048,210.048,0,0,0-22.752-2.687c-.07,0-.362.514-.431.51-.313-.017-.391.046-.7.032s-.2-.149-.511-.159c-.074,0-1.011.131-1.086.128-1.241-.041-2.537-2.409-3.735-2.393-18.5.25-30.662,3.428-33.715,4.218l.184,2.837c-.023.005.075-3.093.053-3.087l-.328-2.083,14.794-26.1-.181-.1a2.161,2.161,0,0,0-2.84.682l-19.885,29.5a2.162,2.162,0,0,0,1.8,3.37l53.064-.12a2.14,2.14,0,0,1,.825.161,28.957,28.957,0,0,0,14.43,2.974c6.781-.508,9.418-2.255,10.251-2.594a2.1,2.1,0,0,1,.793-.153l57.862-.121a2.162,2.162,0,0,0,1.812-3.333Z" transform="translate(-5.364 -18.174)" fill="#71e2da"/>
    <path id="Path_1483" data-name="Path 1483" d="M189.917,196.8c-1.336.644-2.846,1.161-3.551-.149-.159-.939.646-1.8,1.9-2.6l-.1-.162a7.076,7.076,0,0,1-4.042.393c-.488-.114-1.016-.167-1.016-.929a2.274,2.274,0,0,1,.294-.881,7.063,7.063,0,0,1,2.6-2.187l-.221-.367c-.129.041-.235.072-.305.088a1.758,1.758,0,0,1-1.873-.376,1.444,1.444,0,0,1-.282-1.126,2.417,2.417,0,0,1,.772-1.393l-4.97-8.265a5.744,5.744,0,0,0-3.827-2.678,111.882,111.882,0,0,0-23.908-1.819,61.325,61.325,0,0,0-12.162,1.425l4.1,2.036-3.553,10.574c-.4,1.255-1.176,4.177-1.176,4.177l-5.7-1.206.131,16.821a2.682,2.682,0,0,0,3.385,2.552c7.683-2.054,21.107-2.571,28.1-2.693a163.313,163.313,0,0,1,27.98,2.487,2.355,2.355,0,0,0,2.753-2.231,8.3,8.3,0,0,0-1.18-4.6l-4.145-6.892Z" transform="translate(-13.251 -17.38)" fill="#fff"/>
    <path id="Path_1484" data-name="Path 1484" d="M189.917,196.8c-1.336.644-2.846,1.161-3.551-.149-.159-.939.646-1.8,1.9-2.6l-.1-.162a7.076,7.076,0,0,1-4.042.393c-.488-.114-1.016-.167-1.016-.929a2.274,2.274,0,0,1,.294-.881,7.063,7.063,0,0,1,2.6-2.187l-.221-.367c-.129.041-.235.072-.305.088a1.758,1.758,0,0,1-1.873-.376,1.444,1.444,0,0,1-.282-1.126,2.417,2.417,0,0,1,.772-1.393l-4.97-8.265a5.744,5.744,0,0,0-3.827-2.678,111.882,111.882,0,0,0-23.908-1.819,61.325,61.325,0,0,0-12.162,1.425l4.1,2.036-3.553,10.574c-.4,1.255-1.176,4.177-1.176,4.177l-5.7-1.206.131,16.821a2.682,2.682,0,0,0,3.385,2.552c7.683-2.054,21.107-2.571,28.1-2.693a163.313,163.313,0,0,1,27.98,2.487,2.355,2.355,0,0,0,2.753-2.231,8.3,8.3,0,0,0-1.18-4.6l-4.145-6.892Z" transform="translate(-13.251 -17.38)" fill="none" stroke="#000" stroke-miterlimit="10" stroke-width="1.027"/>
    <path id="Path_1485" data-name="Path 1485" d="M141.35,32.8a6.847,6.847,0,0,1,1.014-1.369,14.762,14.762,0,0,0,3.745-5.945c.336-1.551.815-6.929-2.41-9.945a10.444,10.444,0,0,0-7.494-2.646s-8.355.41-9.139,8.207a13.454,13.454,0,0,0,3.522,10.052,13.378,13.378,0,0,1,1.524,1.647" transform="translate(-12.666 -1.284)" fill="#ffe180"/>
    <path id="Path_1486" data-name="Path 1486" d="M196.252,120.129c-11.069-.516-20.27,8-27.856,16.074-9.617,10.237-19.568,23.173-27.887,34.488" transform="translate(-14.01 -11.976)" fill="none" stroke="#000" stroke-miterlimit="10" stroke-width="1.027"/>
    <path id="Path_1487" data-name="Path 1487" d="M177.328,100.814s4.957,9.276,1.072,14.442-4.4,17.834.207,17.99c4.046.14,4.627-4.3,6.754-7.112s6.08-7.769,16.049-8.259l2.042-3.3-2.665-3.583s-15.629,4.534-23.459-10.175" transform="translate(-17.481 -10.052)" fill="#fff"/>
    <path id="Path_1488" data-name="Path 1488" d="M177.328,100.814s4.957,9.276,1.072,14.442-4.4,17.834.207,17.99c4.046.14,4.627-4.3,6.754-7.112s6.08-7.769,16.049-8.259l2.042-3.3-2.665-3.583S185.158,115.523,177.328,100.814Z" transform="translate(-17.481 -10.052)" fill="none" stroke="#000" stroke-miterlimit="10" stroke-width="1.027"/>
    <path id="Path_1489" data-name="Path 1489" d="M202.14,111.177s2.257,3.039,1.243,8.654l22.694-8.654-5.3-13.26Z" transform="translate(-20.156 -9.764)" fill="#fff"/>
    <path id="Path_1490" data-name="Path 1490" d="M210.013,105.591a1.685,1.685,0,0,1,.439,1.259,3.556,3.556,0,0,1-.363,1.305,26.729,26.729,0,0,1-2.284,4.056c-.324.549-2.081,3.215-2.4,3.767a5.121,5.121,0,0,1-.952,1.184.808.808,0,0,1-.689.284.684.684,0,0,1-.433-.452,3.078,3.078,0,0,1-.128-1.173c.03-1.475-1.094-2.752-1.064-4.228,0-.143,1.16-.487,1.205-.622.131-.405.574-.614.961-.811a16.009,16.009,0,0,0,3.351-2.533q1.036-.939,2.074-1.876" transform="translate(-20.156 -10.529)" fill="#bdbcec"/>
    <path id="Path_1491" data-name="Path 1491" d="M172.4,70.894c-.119,4.712-1.989,15.23,5.829,29.973a18.012,18.012,0,0,0,11.325,8.492c6.513,1.537,13.191-1.873,17.516-7.775" transform="translate(-17.162 -7.069)" fill="#fff"/>
    <path id="Path_1492" data-name="Path 1492" d="M172.4,70.894c-.119,4.712-1.989,15.23,5.829,29.973a18.012,18.012,0,0,0,11.325,8.492c6.513,1.537,13.191-1.873,17.516-7.775" transform="translate(-17.162 -7.069)" fill="none" stroke="#000" stroke-miterlimit="10" stroke-width="1.027"/>
    <path id="Path_1493" data-name="Path 1493" d="M78.484,182.218s10.683-4.836,26.534-4.582l-1.964-3.416s-14.039,2.027-18.732,2.257-5.443,2.311-5.443,2.311Z" transform="translate(-7.826 -17.372)" fill="#ffe180"/>
    <path id="Path_1494" data-name="Path 1494" d="M143.993,179.2s8.277-2.007,12.347,1.075,8.3,5.2,8.464,6.826-1.3,7.325-1.3,7.325,4.067,6.673,3.742,7.976-2.278.488-4.068-1.465-7.548-8.627-7.548-8.627,3.153,4.616,2.013,6.133-1.964-.019-3.747-1.419c-3.192-2.5-7.713-.694-8.084-5.4l-5.138-2.489S142.549,183.309,143.993,179.2Z" transform="translate(-14.027 -17.804)" fill="none" stroke="#000" stroke-miterlimit="10" stroke-width="1.027"/>
    <path id="Path_1495" data-name="Path 1495" d="M88.019,113.822a8.352,8.352,0,0,1-6.767,1.352c-.714-.171-1.568-.408-2.071.2a1.163,1.163,0,0,0-.13,1.2,2.3,2.3,0,0,0,1.394,1.3,5.42,5.42,0,0,0,3.2.435s1.439-.185,1.641-.858" transform="translate(-7.872 -11.349)" fill="none" stroke="#000" stroke-miterlimit="10" stroke-width="1.027"/>
    <path id="Path_1496" data-name="Path 1496" d="M197.6,84.413a1.347,1.347,0,1,1-1.347-1.347,1.347,1.347,0,0,1,1.347,1.347" transform="translate(-19.434 -8.283)"/>
    <path id="Path_1497" data-name="Path 1497" d="M223.781,115.511c.325-.086.576.266.709.56,1.885,4.185,3.394,8.726,2.723,13.232-.92,6.18-6.309,11.527-12.778,12.678S200.9,140,197.68,134.56a11.485,11.485,0,0,1-1.386-9.039,8.829,8.829,0,0,1,6.8-6.125" transform="translate(-19.532 -11.517)" fill="#fff"/>
    <path id="Path_1498" data-name="Path 1498" d="M223.781,115.511c.325-.086.576.266.709.56,1.885,4.185,3.394,8.726,2.723,13.232-.92,6.18-6.309,11.527-12.778,12.678S200.9,140,197.68,134.56a11.485,11.485,0,0,1-1.386-9.039,8.829,8.829,0,0,1,6.8-6.125" transform="translate(-19.532 -11.517)" fill="none" stroke="#71e2da" stroke-miterlimit="10" stroke-width="1.536"/>
    <path id="Path_1499" data-name="Path 1499" d="M225.541,191.9c8.14-.131,17.942-.217,26.082-.349,5.925-.1,11.962-.211,17.574-2.112s10.833-5.916,12.657-11.553a22.255,22.255,0,0,0,.763-8.129A49.886,49.886,0,0,0,262.955,133.2s-14.842-11.514-21.549-14.369" transform="translate(-22.489 -11.849)" fill="none" stroke="#000" stroke-miterlimit="10" stroke-width="1.027"/>
    <path id="Path_1500" data-name="Path 1500" d="M37,154.456s33.3,13.025,76.936-.737l2.688,5.476s-49.4,14.847-81.85-.464Z" transform="translate(-3.467 -15.328)" fill="#ffe180"/>
    <path id="Path_1501" data-name="Path 1501" d="M46.771,141.07s30.4,9.939,59.829-1.374l3.6,4.714s-30.323,14.1-67.389,1.159Z" transform="translate(-4.269 -13.929)" fill="#ffe180"/>
    <path id="Path_1502" data-name="Path 1502" d="M143.631,35.05a6.816,6.816,0,0,1,1.015-1.368,14.754,14.754,0,0,0,3.744-5.945c.336-1.551.816-6.929-2.41-9.945a10.447,10.447,0,0,0-7.494-2.647s-8.354.411-9.139,8.207A13.455,13.455,0,0,0,132.869,33.4a13.378,13.378,0,0,1,1.524,1.647" transform="translate(-12.894 -1.508)" fill="none" stroke="#000" stroke-miterlimit="10" stroke-width="0.903"/>
    <path id="Rectangle_2570" data-name="Rectangle 2570" d="M3.37,0H6.7a3.37,3.37,0,0,1,3.37,3.37V4.807A3.371,3.371,0,0,1,6.7,8.178H3.371A3.371,3.371,0,0,1,0,4.807V3.37A3.37,3.37,0,0,1,3.37,0Z" transform="translate(121.077 33.542)" fill="none" stroke="#000" stroke-miterlimit="10" stroke-width="0.903"/>
    <path id="Path_1503" data-name="Path 1503" d="M105.873,174.136a23.068,23.068,0,0,0,2.018,4.025,161.7,161.7,0,0,0,21.762-6.153,6.214,6.214,0,0,1-4.193-4.072s-8.215,3.823-23.638,6.266c1.33-.054,2.684-.08,4.051-.067" transform="translate(-10.153 -16.745)" fill="#ffe180"/>
    <path id="Path_1504" data-name="Path 1504" d="M80.6,175.593c-1.9.131-3.852.239-5.883.31-28.341,1-43.5-9.76-43.5-9.76l-1.955,5.039c13.073,8.4,29.186,10.688,44.314,10.231l2.815-4.966s1.6-.385,4.213-.853" transform="translate(-2.918 -16.567)" fill="#ffe180"/>
    <path id="Path_1505" data-name="Path 1505" d="M68.514,127.863c-6.012.121-11.157,2.48-15.949,5.668-9.015,6-15.321,14.694-19.483,23.921s-6.329,19.038-8.333,28.8c-.661,3.216-1.306,6.519-.609,9.729" transform="translate(-2.377 -12.75)" fill="none" stroke="#000" stroke-miterlimit="10" stroke-width="1.027"/>
    <path id="Path_1506" data-name="Path 1506" d="M88.78,126.663c7.294-.169,15.9,4.823,20.911,10.123,5.277,5.576,7.7,9.181,11.279,16.763,1.534,3.254,3.007,9.124,4.13,12.54" transform="translate(-8.852 -12.629)" fill="none" stroke="#000" stroke-miterlimit="10" stroke-width="1.027"/>
    <path id="Path_1507" data-name="Path 1507" d="M102.663,166.264c.735,2.975,3.934,8.952,5.333,11.679,4.853,9.457,16.034,11.274,27.662,13.552l1.481-4.356" transform="translate(-10.237 -16.579)" fill="none" stroke="#000" stroke-miterlimit="10" stroke-width="1.027"/>
    <path id="Path_1508" data-name="Path 1508" d="M128.736,170.258s9.349,5.274,15.448,7.919" transform="translate(-12.837 -16.977)" fill="none" stroke="#000" stroke-miterlimit="10" stroke-width="1.027"/>
    <path id="Path_1509" data-name="Path 1509" d="M111.954,187c-3.243-1.8-5.982-5.235-7.688-7.781A2.676,2.676,0,0,0,102,178.024c-4.11.07-15.8.567-23.532,3.865a4.674,4.674,0,0,0-2.235,1.988L64.1,205.271a7.242,7.242,0,0,0-.936,3.857l.029.749a2.014,2.014,0,0,0,2.366,1.907,212.557,212.557,0,0,1,31.583-2.435c9.356-.125,20.52,1.654,25.909,2.633a2.673,2.673,0,0,0,3.149-2.664l-.188-15.5a2.669,2.669,0,0,0-2.173-2.595A38.921,38.921,0,0,1,111.954,187" transform="translate(-6.298 -17.751)" fill="#fff"/>
    <path id="Path_1510" data-name="Path 1510" d="M111.954,187c-3.243-1.8-5.982-5.235-7.688-7.781A2.676,2.676,0,0,0,102,178.024c-4.11.07-15.8.567-23.532,3.865a4.674,4.674,0,0,0-2.235,1.988L64.1,205.271a7.242,7.242,0,0,0-.936,3.857l.029.749a2.014,2.014,0,0,0,2.366,1.907,212.557,212.557,0,0,1,31.583-2.435c9.356-.125,20.52,1.654,25.909,2.633a2.673,2.673,0,0,0,3.149-2.664l-.188-15.5a2.669,2.669,0,0,0-2.173-2.595A38.921,38.921,0,0,1,111.954,187Z" transform="translate(-6.298 -17.751)" fill="none" stroke="#000" stroke-miterlimit="10" stroke-width="1.027"/>
    <line id="Line_1277" data-name="Line 1277" x1="3.724" y2="1.726" transform="translate(159.386 71.109)" fill="#f8f9ff"/>
    <path id="Path_1511" data-name="Path 1511" d="M180.486,78.547l-3.263,1.512-.462.213a.453.453,0,0,0-.16.617.458.458,0,0,0,.615.16l3.263-1.512.461-.214a.454.454,0,0,0,.162-.616.461.461,0,0,0-.616-.161" transform="translate(-17.604 -7.827)"/>
    <path id="Path_1512" data-name="Path 1512" d="M193.428,77.222a32.672,32.672,0,0,0,5.68.362" transform="translate(-19.287 -7.7)" fill="#f8f9ff"/>
    <path id="Path_1513" data-name="Path 1513" d="M193.259,77.606a33.966,33.966,0,0,0,5.8.379.45.45,0,0,0,0-.9,32.544,32.544,0,0,1-5.559-.347.466.466,0,0,0-.555.315.454.454,0,0,0,.315.553" transform="translate(-19.238 -7.651)"/>
    <path id="Path_1514" data-name="Path 1514" d="M188.413,94.744c.011.018.024.032.009.053,0,0,0,.019.01.024a.2.2,0,0,0,.109.033l.086,0c0,.009,0,.017-.005.021-.022.018-.056.028-.061.055,0,.006-.019.014-.032.016l-.113.023c-.023.005-.046,0-.067.017.048.009.1-.012.141,0,.025.013.006.032.008.046s-.013.035-.022.053a.027.027,0,0,1-.011.012l-.1.031a.247.247,0,0,1-.059.006c-.029,0-.06.005-.072.032a.421.421,0,0,1-.158.046,2.782,2.782,0,0,1-.5.015l-.165-.009-.125-.014a.119.119,0,0,0-.03,0,1.329,1.329,0,0,1-.336-.041,2.2,2.2,0,0,1-.706-.283,2.551,2.551,0,0,1-.3-.21,1.6,1.6,0,0,1-.3-.332,1.633,1.633,0,0,1-.239-.518,1.772,1.772,0,0,1-.049-.244,1.622,1.622,0,0,1-.008-.186,3.014,3.014,0,0,1,.055-.535c.047-.249.108-.48.164-.712l.086-.329c.005-.023.006-.025.018-.076.013-.087.038-.17.059-.256l.149-.554c.018-.057.031-.1.058-.185.056-.186.081-.269.118-.391a.069.069,0,0,1,.005-.019,5.227,5.227,0,0,1,.176-.6c.018-.056.042-.124.062-.185.007-.02.009-.025.018-.056.036-.145.084-.285.128-.428.01-.029.012-.036.027-.083a4.664,4.664,0,0,1,.151-.452,1.989,1.989,0,0,0,.067-.2c.032-.1.039-.117.057-.175.056-.176.11-.354.175-.526l.095-.246c.049-.127.108-.249.167-.372.022-.041.05-.1.071-.137a1.614,1.614,0,0,1,.135-.208c.011-.014.023-.032.038-.017,0,0,.011,0,.013-.007.013-.023.032-.023.048-.031s.031-.01.037.008.014.01.023.012.026.017.014.042a.1.1,0,0,1-.016.033.213.213,0,0,0-.041.125c-.008.072-.015.142-.023.2-.012.077-.023.146-.032.2-.033.148-.058.257-.081.365-.06.218-.086.318-.139.508-.041.139-.054.186-.081.276-.009.035-.023.08-.032.11l-.122.393c0,.014-.013.033-.016.045-.013.036-.023.068-.036.11l-.017.064c-.043.111-.068.227-.105.339-.008.031-.026.1-.036.14-.041.149-.069.259-.12.444-.086.321-.122.452-.181.666l-.1.351c-.036.14-.075.291-.113.436-.009.035-.017.064-.027.1l-.127.551a1.318,1.318,0,0,1-.054.2.277.277,0,0,1-.008.028c-.053.229-.114.45-.147.664a1.489,1.489,0,0,0,.064.811,1.586,1.586,0,0,0,.158.266l.005.007.121.125a1.479,1.479,0,0,0,.281.2,1.778,1.778,0,0,0,.329.148,1.57,1.57,0,0,0,.164.048,3.036,3.036,0,0,0,.763.065.909.909,0,0,1,.111,0,.636.636,0,0,0,.131,0,1.816,1.816,0,0,1,.242,0,.222.222,0,0,1,.087.021l.073.026" transform="translate(-18.479 -8.635)"/>
    <path id="Path_1515" data-name="Path 1515" d="M180.926,86.53a1.347,1.347,0,1,1-1.347-1.347,1.347,1.347,0,0,1,1.347,1.347" transform="translate(-17.772 -8.494)"/>
    <path id="Path_1516" data-name="Path 1516" d="M190.02,103.294a8.846,8.846,0,0,0,3.346-.023,9.285,9.285,0,0,0,5.918-3.843c.191-.266-.536-1.142-.776-.806a9,9,0,0,1-5.791,3.694,8.4,8.4,0,0,1-3.091.028c-.458-.1.067.881.393.951" transform="translate(-18.89 -9.826)" fill="#1c1a68"/>
    <path id="Path_1517" data-name="Path 1517" d="M172.957,61.359s-1.289,1.842-5.708,3.5-3.314,7,0,8.47,8.433-.552,10.384-4.235a7.372,7.372,0,0,0,7.373-1.507" transform="translate(-16.386 -6.118)" fill="#fff"/>
    <path id="Path_1518" data-name="Path 1518" d="M172.957,61.359s-1.289,1.842-5.708,3.5-3.314,7,0,8.47,8.433-.552,10.384-4.235a7.372,7.372,0,0,0,7.373-1.507" transform="translate(-16.386 -6.118)" fill="none" stroke="#000" stroke-miterlimit="10" stroke-width="1.027"/>
    <path id="Path_1519" data-name="Path 1519" d="M170.209,59.407s4.555-18.126,24.925-17.61S215.8,55,218.112,58.856c0,0,5.124,10.9,12.033,14.832,5.253,2.993,9.822,6.445,11.131,13.95" transform="translate(-16.972 -4.167)" fill="#fff"/>
    <path id="Path_1520" data-name="Path 1520" d="M170.209,59.407s4.555-18.126,24.925-17.61S215.8,55,218.112,58.856c0,0,5.124,10.9,12.033,14.832,5.253,2.993,9.822,6.445,11.131,13.95" transform="translate(-16.972 -4.167)" fill="none" stroke="#000" stroke-miterlimit="10" stroke-width="1.027"/>
    <path id="Path_1521" data-name="Path 1521" d="M178.135,47.731s-5.308,10.571-4.913,12.635l-3.19,2.251a8.912,8.912,0,0,1,.7-5.469c1.349-3.12,7.4-9.416,7.4-9.416" transform="translate(-16.939 -4.759)" fill="#bdbcec"/>
    <path id="Path_1522" data-name="Path 1522" d="M194.026,66.512s2.579,4.362,9.013,3.174" transform="translate(-19.347 -6.632)" fill="#fff"/>
    <path id="Path_1523" data-name="Path 1523" d="M194.026,66.512s2.579,4.362,9.013,3.174" transform="translate(-19.347 -6.632)" fill="none" stroke="#000" stroke-miterlimit="10" stroke-width="1.027"/>
    <path id="Path_1524" data-name="Path 1524" d="M74.115,124.754a2.441,2.441,0,0,0-.271,1.928c.362.91,9.241,4.241,11.176,3.049,0,0,1.95-.778,1.068-3.263,0,0-6.9,1.588-11.973-1.715" transform="translate(-7.352 -12.44)" fill="#bdbcec"/>
    <path id="Path_1525" data-name="Path 1525" d="M212.818,80.548s-.316-2.088,1.413-2.235,2.935,1.4,2.625,4.042-1.009,2.312-1.009,2.312" transform="translate(-21.218 -7.808)" fill="#fff"/>
    <path id="Path_1526" data-name="Path 1526" d="M212.818,80.548s-.316-2.088,1.413-2.235,2.935,1.4,2.625,4.042-1.009,2.312-1.009,2.312" transform="translate(-21.218 -7.808)" fill="none" stroke="#000" stroke-miterlimit="10" stroke-width="0.794"/>
    <path id="Path_1527" data-name="Path 1527" d="M244.952,112.248c.221,5.2-9.034,17.575-17.818,13.283-7.871-3.847-7.166-8.811-6.575-12.322.933-5.528,4.372-9.666.25-13.818s-1.612-12.11-1.612-12.11" transform="translate(-21.781 -8.703)" fill="#fff"/>
    <path id="Path_1528" data-name="Path 1528" d="M244.952,112.248c.221,5.2-9.034,17.575-17.818,13.283-7.871-3.847-7.166-8.811-6.575-12.322.933-5.528,4.372-9.666.25-13.818s-1.612-12.11-1.612-12.11" transform="translate(-21.781 -8.703)" fill="none" stroke="#000" stroke-miterlimit="10" stroke-width="1.027"/>
    <path id="Path_1529" data-name="Path 1529" d="M163.931,69.534a.985.985,0,0,1,1.784-.3,6.3,6.3,0,0,0,2.947,2.537,10.644,10.644,0,0,0,7.682-.388L173.853,73.8l-6.51.473-3.048-3.143Z" transform="translate(-16.346 -6.858)" fill="#bdbcec"/>
    <path id="Path_1530" data-name="Path 1530" d="M172.957,61.359s-1.289,1.842-5.708,3.5-3.314,7,0,8.47,8.433-.552,10.384-4.235a7.372,7.372,0,0,0,7.373-1.507" transform="translate(-16.386 -6.118)" fill="none" stroke="#000" stroke-miterlimit="10" stroke-width="1.027"/>
    <path id="Path_1531" data-name="Path 1531" d="M201.766,112.257s2.789,3.237,1.58,9" transform="translate(-20.119 -11.193)" fill="none" stroke="#000" stroke-miterlimit="10" stroke-width="1.027"/>
    <path id="Path_1532" data-name="Path 1532" d="M213.909,180.925a38.512,38.512,0,0,0-23.9,6.406,4.229,4.229,0,0,0-1.546,1.583,1.568,1.568,0,0,0,.47,1.984,2.107,2.107,0,0,0,1.521.081c.959-.229,8.049-2.92,8.049-2.92s-8.668,2.766-10.117,5.386a2.25,2.25,0,0,0-.293.881c0,.761.528.815,1.016.928a8.641,8.641,0,0,0,5.982-1.283l5.82-2.649c-3.465,1.845-9.99,3.779-9.562,6.3.684,1.271,2.126.821,3.433.205l8.523-4.019s-5.438,2.563-6,3.172a1.859,1.859,0,0,0-.5.836c-.189.876.752,1.605,1.634,1.768,2.2.407,4.246-1.087,6.364-1.812,5.778-1.977,8.009.995,15.8-1.56" transform="translate(-18.755 -18.031)" fill="#fff"/>
    <path id="Path_1533" data-name="Path 1533" d="M213.909,180.925a38.512,38.512,0,0,0-23.9,6.406,4.229,4.229,0,0,0-1.546,1.583,1.568,1.568,0,0,0,.47,1.984,2.107,2.107,0,0,0,1.521.081c.959-.229,8.049-2.92,8.049-2.92s-8.668,2.766-10.117,5.386a2.25,2.25,0,0,0-.293.881c0,.761.528.815,1.016.928a8.641,8.641,0,0,0,5.982-1.283l5.82-2.649c-3.465,1.845-9.99,3.779-9.562,6.3.684,1.271,2.126.821,3.433.205l8.523-4.019s-5.438,2.563-6,3.172a1.859,1.859,0,0,0-.5.836c-.189.876.752,1.605,1.634,1.768,2.2.407,4.246-1.087,6.364-1.812,5.778-1.977,8.009.995,15.8-1.56" transform="translate(-18.755 -18.031)" fill="none" stroke="#000" stroke-miterlimit="10" stroke-width="1.027"/>
    <path id="Path_1534" data-name="Path 1534" d="M224.678,196.81c-3.435-6.062-6.943-12.336-7.731-19.259a3.446,3.446,0,0,1,.427-2.564c.678-.852,1.923-.923,3.011-.925,11.7-.032,20.121-.337,31.792-1.208.465-.034,3.456-.01,3.683-1.755.131-1.016-1.986-3.065-1.986-3.065" transform="translate(-21.627 -16.755)" fill="none" stroke="#000" stroke-miterlimit="10" stroke-width="1.027"/>
    <path id="Path_1535" data-name="Path 1535" d="M219.422,52.322s-1.935-1.269.224,8.13c0,0,2.062,10.122,10.479,16.73,6.157,4.834,7.4,3.458,9.853,10.649,1.544,4.519,7.51,3.881,5.728-.538-2.1-5.208,1.187-2.767-4.617-8.342s-.826-.887-.826-.887A32.026,32.026,0,0,1,226.5,66.781c-5.336-8.075-3.373-10.867-7.081-14.46" transform="translate(-21.8 -5.211)" fill="#bdbcec"/>
    <line id="Line_1278" data-name="Line 1278" x2="3.97" transform="translate(120.973 37.701)" fill="none" stroke="#000" stroke-miterlimit="10" stroke-width="0.903"/>
    <line id="Line_1279" data-name="Line 1279" y1="4.228" x2="3.167" transform="translate(132.109 4.665)" fill="#fff"/>
    <line id="Line_1280" data-name="Line 1280" y1="4.228" x2="3.167" transform="translate(132.109 4.665)" fill="none" stroke="#000" stroke-miterlimit="10" stroke-width="1.027"/>
    <line id="Line_1281" data-name="Line 1281" y1="7.291" x2="0.357" transform="translate(128.129 0.023)" fill="#fff"/>
    <line id="Line_1282" data-name="Line 1282" y1="7.291" x2="0.357" transform="translate(128.129 0.023)" fill="none" stroke="#000" stroke-miterlimit="10" stroke-width="1.027"/>
    <line id="Line_1283" data-name="Line 1283" x1="2.963" y1="3.742" transform="translate(121.586 4.781)" fill="#fff"/>
    <line id="Line_1284" data-name="Line 1284" x1="2.963" y1="3.742" transform="translate(121.586 4.781)" fill="none" stroke="#000" stroke-miterlimit="10" stroke-width="1.027"/>
    <path id="Path_1536" data-name="Path 1536" d="M241.479,88.33c-1.928-9.84-6.081-11.649-11.335-14.642-6.91-3.937-12.033-14.832-12.033-14.832C215.8,55,215.505,42.315,195.133,41.8s-24.924,17.611-24.924,17.611" transform="translate(-16.972 -4.167)" fill="none" stroke="#000" stroke-miterlimit="10" stroke-width="1.027"/>
    <line id="Line_1285" data-name="Line 1285" y1="5.926" x2="6.242" transform="translate(156.265 152.42)" fill="none" stroke="#000" stroke-miterlimit="10" stroke-width="1.027"/>
    <path id="Rectangle_2571" data-name="Rectangle 2571" d="M.919,0H16.236a.919.919,0,0,1,.919.919V2.44a.918.918,0,0,1-.918.918H.919A.919.919,0,0,1,0,2.439V.919A.919.919,0,0,1,.919,0Z" transform="translate(201.069 141.925)" fill="none" stroke="#000" stroke-miterlimit="10" stroke-width="0.768"/>
    <path id="Path_1537" data-name="Path 1537" d="M223.339,164.734v5.987a4.2,4.2,0,0,0,1.3,3" transform="translate(-22.27 -16.426)" fill="none" stroke="#000" stroke-miterlimit="10" stroke-width="0.785"/>
    <line id="Line_1286" data-name="Line 1286" y2="7.123" transform="translate(217.763 146.763)" fill="none" stroke="#000" stroke-miterlimit="10" stroke-width="0.785"/>
    <path id="Path_1538" data-name="Path 1538" d="M94.03,100.494a1.347,1.347,0,1,1-1.348-1.347,1.348,1.348,0,0,1,1.348,1.347" transform="translate(-9.107 -9.886)"/>
    <path id="Path_1539" data-name="Path 1539" d="M76.847,103.123a1.347,1.347,0,1,1-1.347-1.347,1.347,1.347,0,0,1,1.347,1.347" transform="translate(-7.394 -10.148)"/>
    <path id="Path_1540" data-name="Path 1540" d="M84.669,99.72a40.335,40.335,0,0,1,2.456,5.645,2.46,2.46,0,0,1,.189,1.352,1.712,1.712,0,0,1-1.173,1.136,5.043,5.043,0,0,1-1.69.155" transform="translate(-8.421 -9.943)" fill="none" stroke="#000" stroke-miterlimit="10" stroke-width="0.718"/>
    <path id="Path_1541" data-name="Path 1541" d="M72.427,133.275s6.94,8.575,14.722,0" transform="translate(-7.222 -13.289)" fill="#fff"/>
    <path id="Path_1542" data-name="Path 1542" d="M72.427,133.275s6.94,8.575,14.722,0" transform="translate(-7.222 -13.289)" fill="none" stroke="#71e2da" stroke-miterlimit="10" stroke-width="1.024"/>
    <path id="Path_1543" data-name="Path 1543" d="M74.007,125.02s-1.494,6.376-1.346,7.789" transform="translate(-7.244 -12.466)" fill="none" stroke="#000" stroke-miterlimit="10" stroke-width="0.718"/>
    <line id="Line_1287" data-name="Line 1287" x2="0.998" y2="6.1" transform="translate(78.929 114.243)" fill="none" stroke="#000" stroke-miterlimit="10" stroke-width="0.718"/>
    <line id="Line_1288" data-name="Line 1288" x1="3.543" y2="21.845" transform="translate(42.5 155.634)" fill="none" stroke="#000" stroke-miterlimit="10" stroke-width="0.925"/>
    <path id="Path_1544" data-name="Path 1544" d="M140.958,207.013s13.788-1.921,19.685-1.287" transform="translate(-14.055 -20.501)" fill="none" stroke="#000" stroke-miterlimit="10" stroke-width="0.925"/>
    <path id="Path_1545" data-name="Path 1545" d="M174.583,205.741s12.018.948,18.454,2.511" transform="translate(-17.408 -20.515)" fill="none" stroke="#000" stroke-miterlimit="10" stroke-width="0.925"/>
    <path id="Path_1546" data-name="Path 1546" d="M172.436,200.808s10.484.493,14.53,1.674" transform="translate(-17.194 -20.023)" fill="none" stroke="#000" stroke-miterlimit="10" stroke-width="0.925"/>
    <path id="Path_1547" data-name="Path 1547" d="M61.66,110c2.249,4.138,5.768,7.327,11.251,9.62,6.912,2.889,15.807,2.817,20.947-2.632,2.649-2.81,3.968-5.841,4.7-10.423,1.291-8.068-3.432-27.588-3.894-35.746" transform="translate(-6.148 -7.061)" fill="none" stroke="#000" stroke-miterlimit="10" stroke-width="1.027"/>
    <path id="Path_1548" data-name="Path 1548" d="M56.943,106.235a10.232,10.232,0,0,1-6.806-3.536c-4.2-4.961-4.1-8.849-3.538-13.251s-1.529-4.487-1.94-7.566.236-5.192,3.676-8.369,5.483-5.207,7.211-9.71,8.992-10.571,15.8-10.957S81.8,54,83.032,55.326a5.013,5.013,0,0,1,1.788,4.534c-.064,1.464,1.43,1.3,2.677.917a8.932,8.932,0,0,0,2.252-1.071c2.232-1.465,10.1-6.144,15.76-3.451,6.664,3.167,4.076,9.85,4.076,9.85s-1.567,5.16-7.561,3.917c0,0,5.113,1.9,5.274,6.614s-5.108,5.012-5.91,4.959-1.912.214-7.42-2.551c0,0-4.485-2.6-8.088.37" transform="translate(-4.442 -5.263)" fill="#fff"/>
    <path id="Path_1549" data-name="Path 1549" d="M56.943,106.235a10.232,10.232,0,0,1-6.806-3.536c-4.2-4.961-4.1-8.849-3.538-13.251s-1.529-4.487-1.94-7.566.236-5.192,3.676-8.369,5.483-5.207,7.211-9.71,8.992-10.571,15.8-10.957S81.8,54,83.032,55.326a5.013,5.013,0,0,1,1.788,4.534c-.064,1.464,1.43,1.3,2.677.917a8.932,8.932,0,0,0,2.252-1.071c2.232-1.465,10.1-6.144,15.76-3.451,6.664,3.167,4.076,9.85,4.076,9.85s-1.567,5.16-7.561,3.917c0,0,5.113,1.9,5.274,6.614s-5.108,5.012-5.91,4.959-1.912.214-7.42-2.551c0,0-4.485-2.6-8.088.37" transform="translate(-4.442 -5.263)" fill="none" stroke="#000" stroke-miterlimit="10" stroke-width="1.027"/>
    <path id="Path_1550" data-name="Path 1550" d="M59.485,83.837s-3.833,2.968-2.444,6.952,2.928,6.948,1.743,9.235c0,0-1.02-1.758-2.525-.9-1.281.727-1.155,2.081-.16,4.492,1.1,2.676,2.839,1.7,2.839,1.7" transform="translate(-5.517 -8.36)" fill="none" stroke="#000" stroke-miterlimit="10" stroke-width="1.027"/>
    <path id="Path_1551" data-name="Path 1551" d="M71.432,80.39s3.846,6.638,11.3,4.69" transform="translate(-7.123 -8.016)" fill="none" stroke="#000" stroke-miterlimit="10" stroke-width="1.027"/>
    <path id="Path_1552" data-name="Path 1552" d="M144.9,179.054s-1.172.328-1.133,1.246,2.8.811,5.369.733c3.451-.1,5.664.734,7.426,2.312s8.141,2.939,8.141,2.939l-10.428-7.229Z" transform="translate(-14.335 -17.854)" fill="#bdbcec"/>
    <path id="Path_1553" data-name="Path 1553" d="M143.993,179.2s8.277-2.007,12.347,1.075,8.3,5.2,8.464,6.826-1.3,7.325-1.3,7.325,4.067,6.673,3.742,7.976-2.278.488-4.068-1.465-7.548-8.627-7.548-8.627,3.153,4.616,2.013,6.133-1.964-.019-3.747-1.419c-3.192-2.5-7.713-.694-8.084-5.4l-5.138-2.489S142.549,183.309,143.993,179.2Z" transform="translate(-14.027 -17.804)" fill="none" stroke="#000" stroke-miterlimit="10" stroke-width="1.027"/>
    <path id="Path_1554" data-name="Path 1554" d="M115.733,60.7s-.39,8.472-7.246,9.871c0,0,2.37,1,3.968.307s3.483-3.2,3.483-3.2,1.386-5.214-.205-6.982" transform="translate(-10.818 -6.052)" fill="#bdbcec"/>
    <path id="Path_1555" data-name="Path 1555" d="M111.869,76.227s.475,8.209-14.068,4.531l5.321,2.37s4.364,2.162,7.754-.393c0,0,3.112-2.111.993-6.508" transform="translate(-9.752 -7.601)" fill="#bdbcec"/>
    <path id="Path_1556" data-name="Path 1556" d="M47.138,91.253s1.036.348,1.7,2.434-.569,4.362,1.422,9.1,1.853,5.39,1.853,5.39S47.233,102.792,46.52,97.2Z" transform="translate(-4.639 -9.099)" fill="#bdbcec"/>
    <path id="Path_1557" data-name="Path 1557" d="M56.943,106.235a10.232,10.232,0,0,1-6.806-3.536c-4.2-4.961-4.1-8.849-3.538-13.251s-1.529-4.487-1.94-7.566.236-5.192,3.676-8.369,5.483-5.207,7.211-9.71,8.992-10.571,15.8-10.957S81.8,54,83.032,55.326a5.013,5.013,0,0,1,1.788,4.534c-.064,1.464,1.43,1.3,2.677.917a8.932,8.932,0,0,0,2.252-1.071c2.232-1.465,10.1-6.144,15.76-3.451,6.664,3.167,4.076,9.85,4.076,9.85s-1.567,5.16-7.561,3.917c0,0,5.113,1.9,5.274,6.614s-5.108,5.012-5.91,4.959-1.912.214-7.42-2.551c0,0-4.485-2.6-8.088.37" transform="translate(-4.442 -5.263)" fill="none" stroke="#000" stroke-miterlimit="10" stroke-width="1.027"/>
    <path id="Path_1558" data-name="Path 1558" d="M75.061,95.686S71.779,94.608,70.2,97.21" transform="translate(-7 -9.519)" fill="none" stroke="#000" stroke-miterlimit="10" stroke-width="1.186"/>
    <path id="Path_1559" data-name="Path 1559" d="M88.78,92.616a6.21,6.21,0,0,1,4.995-.652" transform="translate(-8.852 -9.144)" fill="none" stroke="#000" stroke-miterlimit="10" stroke-width="1.027"/>
  </g>
</svg>
