<svg id="Group_1111" data-name="Group 1111" xmlns="http://www.w3.org/2000/svg" xmlns:xlink="http://www.w3.org/1999/xlink" width="247.676" height="137.807" viewBox="0 0 247.676 137.807">
  <defs>
    <clipPath id="clip-path">
      <rect id="Rectangle_2618" data-name="Rectangle 2618" width="247.676" height="137.807" fill="none"/>
    </clipPath>
  </defs>
  <g id="Group_1110" data-name="Group 1110" clip-path="url(#clip-path)">
    <path id="Path_1923" data-name="Path 1923" d="M53.828,126.566S-4.439,102.611.271,71.635,36.021,45.689,48.317,43.08s.042-26.09,28.335-35.008,60.142,16.083,79.322,22.245,43.429-4.345,69.275,2.414S250.194,63.185,244.128,83.4c0,0-11.541,35.41-42.916,36.963s-147.384,6.2-147.384,6.2" transform="translate(0 -1.148)" fill="#f8f9ff"/>
    <path id="Path_1924" data-name="Path 1924" d="M185.8,21.045s-10.817-.658-11.006,17.991c0,0-1.136,15.616,1.972,19.158l1.973,1.71s-.734,17,8.57,22.39,13.234,4.1,13.234,4.1S209,85.89,211.9,80.976s5.938-6.982,6.741-12.971l2.233-7.5.224-1.93,2.751-16s-.2-11.176-1.864-12.829-36.181-8.7-36.181-8.7" transform="translate(-32.491 -3.916)" fill="#fff"/>
    <path id="Path_1925" data-name="Path 1925" d="M116.533,11.145s2.561-4.839-2.786-6.4S94.656,5.813,94.656,5.813L92.194,9.371s-.321,5.013,1.975,6.7l2.3,1.683a18.138,18.138,0,0,0-7.234,10.362c-1.858,7.092-1.647,13.6.147,18.065L105.9,49.192l13.251,29.625s11.961-.385,15-6.716,5.955-9.179,2.749-27.193-2.581-16.562-2.581-16.562L114.785,14.352Z" transform="translate(-16.364 -0.791)" fill="#fff"/>
    <path id="Path_1926" data-name="Path 1926" d="M235.429,130.371c-8.963-31.206-29.085-27.743-29.085-27.743l-11.256.216s-26.307-1.637-27.881,35.527l-.814,12.257,69.036-2.085-16.8-16.764,6.213,12.65c.825,1.409,1.224,2.308,2.77,3.158a8.9,8.9,0,0,0,3.151.829,11.7,11.7,0,0,0,11-4.407l21.638-26.13-12.3-6.651-15.668,19.145" transform="translate(-30.965 -19.078)" fill="#71e2da"/>
    <path id="Path_1927" data-name="Path 1927" d="M139.139,148.49s1.466-30.491-5.278-40c-4.4-6.2-14-7.524-14-7.524l-16.526-2.325a22.054,22.054,0,0,0-21.051,7.625c-8.8,10.556-18.315,43.106-18.315,43.106Z" transform="translate(-11.905 -18.288)" fill="#fff"/>
    <path id="Path_1928" data-name="Path 1928" d="M145.429,149.605s1.466-30.491-5.278-40c-4.4-6.2-14-7.523-14-7.523L109.629,99.76a22.054,22.054,0,0,0-21.051,7.624c-8.8,10.557-18.315,43.107-18.315,43.107Z" transform="translate(-13.076 -18.496)" fill="#ffe180"/>
    <path id="Path_1929" data-name="Path 1929" d="M88.157,42.324s-.017,20.262,11.85,34.431c0,0,1.684,4.349,9.46,7.048l-1.135,4.862,12.424,2.473-2.11-9.409-7.4-34.472Z" transform="translate(-16.406 -7.876)" fill="#fff"/>
    <path id="Path_1930" data-name="Path 1930" d="M47.333,77.271s4.049,6.121,13.648,4.214c11.376-2.26,7.962-17.628,7.962-17.628s-4.848.692-7.378-2.154a6.951,6.951,0,0,0-5.736-2.187" transform="translate(-8.809 -11.07)" fill="none" stroke="#000" stroke-miterlimit="10" stroke-width="1.027"/>
    <path id="Path_1931" data-name="Path 1931" d="M44.289,69.5s-1.6-1.485-2.171.457.343,4.912,2.171,4.912" transform="translate(-7.807 -12.833)" fill="none" stroke="#000" stroke-miterlimit="10" stroke-width="1.027"/>
    <path id="Path_1932" data-name="Path 1932" d="M63.624,85.655s-.506,6.267-5.988,5.564-6.3-6.389-6.3-6.389" transform="translate(-9.554 -15.787)" fill="none" stroke="#000" stroke-miterlimit="10" stroke-width="1.027"/>
    <path id="Path_1933" data-name="Path 1933" d="M48.277,85.451s-7.264-1.035-10.444,4.178C35.174,93.989,33.75,112.1,33.75,112.1" transform="translate(-6.281 -15.887)" fill="none" stroke="#000" stroke-miterlimit="10" stroke-width="1.027"/>
    <path id="Path_1934" data-name="Path 1934" d="M81.488,106.262s-3.037-14.134-5.954-18.476c-2.123-3.158-6.768-3.158-6.768-3.158" transform="translate(-12.797 -15.749)" fill="none" stroke="#000" stroke-miterlimit="10" stroke-width="1.027"/>
    <path id="Path_1935" data-name="Path 1935" d="M64.924,60.854c8.134-2.731,4.263-8.6.48-13.464-5.762-7.413-15.974-2.342-15.974-2.342s-9.328-1.867-14.814,4.39c-4.652,5.307-4.9,8.705-3.945,16.187s-3.809,13.687-4.761,17.93a8.872,8.872,0,0,0,7.5,10.385" transform="translate(-4.789 -8.068)" fill="none" stroke="#000" stroke-miterlimit="10" stroke-width="1.027"/>
    <path id="Path_1936" data-name="Path 1936" d="M284.159,54.136s1.627-1.51,2.208.465-.349,5-2.208,5" transform="translate(-52.881 -9.972)" fill="none" stroke="#000" stroke-miterlimit="10" stroke-width="1.027"/>
    <path id="Path_1937" data-name="Path 1937" d="M262.179,70.569s.515,6.375,6.091,5.659,6.4-6.5,6.4-6.5" transform="translate(-48.791 -12.977)" fill="none" stroke="#000" stroke-miterlimit="10" stroke-width="1.027"/>
    <path id="Path_1938" data-name="Path 1938" d="M256.658,69.523s-4.727,0-6.885,3.212c-2.967,4.416-6.885,24.59-6.885,24.59" transform="translate(-45.201 -12.938)" fill="none" stroke="#000" stroke-miterlimit="10" stroke-width="1.027"/>
    <path id="Path_1939" data-name="Path 1939" d="M251.318,43.231s-1.432-7.082,6.553-10.695,13.151-3.707,18.1-1.251,7.895,8.819,6.258,13.29" transform="translate(-46.751 -5.51)" fill="none" stroke="#000" stroke-miterlimit="10" stroke-width="1.027"/>
    <path id="Path_1940" data-name="Path 1940" d="M103.339,98.645a22.052,22.052,0,0,0-21.05,7.625c-8.8,10.556-18.315,43.106-18.315,43.106" transform="translate(-11.905 -18.288)" fill="none" stroke="#000" stroke-miterlimit="10" stroke-width="1.027"/>
    <path id="Path_1941" data-name="Path 1941" d="M132.646,101.588s10.379,1.327,15.134,7.524c7.293,9.506,5.706,40,5.706,40" transform="translate(-24.685 -18.905)" fill="none" stroke="#000" stroke-miterlimit="10" stroke-width="1.068"/>
    <path id="Path_1942" data-name="Path 1942" d="M96.9,64.253s-1.833-2.595-3.241-.641a5.23,5.23,0,0,0,.881,6.922,2.078,2.078,0,0,0,2.862.4" transform="translate(-17.256 -11.702)" fill="none" stroke="#000" stroke-miterlimit="10" stroke-width="1.027"/>
    <path id="Path_1943" data-name="Path 1943" d="M115.3,11.716s7.029-5.354-4.744-9.4-13.881-.8-17.571,4.7,2.99,9.971,2.99,9.971S81.319,29.2,91.138,49.945" transform="translate(-16.33 -0.096)" fill="none" stroke="#000" stroke-miterlimit="10" stroke-width="1.027"/>
    <path id="Path_1944" data-name="Path 1944" d="M132.729,80.346a8.58,8.58,0,0,1-6.959,1.39c-.734-.175-1.613-.419-2.129.2a1.194,1.194,0,0,0-.133,1.231,2.355,2.355,0,0,0,1.432,1.332,5.569,5.569,0,0,0,3.292.447s1.479-.189,1.686-.881" transform="translate(-22.964 -14.952)" fill="none" stroke="#000" stroke-miterlimit="10" stroke-width="1.027"/>
    <path id="Path_1945" data-name="Path 1945" d="M140.262,65.04a1.385,1.385,0,1,1-1.385-1.385,1.385,1.385,0,0,1,1.385,1.385" transform="translate(-25.587 -11.846)"/>
    <path id="Path_1946" data-name="Path 1946" d="M120.719,68.03a1.385,1.385,0,1,1-1.385-1.384,1.386,1.386,0,0,1,1.385,1.384" transform="translate(-21.95 -12.403)"/>
    <path id="Path_1947" data-name="Path 1947" d="M129.885,64.307a41.412,41.412,0,0,1,2.526,5.8A2.519,2.519,0,0,1,132.6,71.5a1.754,1.754,0,0,1-1.206,1.167,5.177,5.177,0,0,1-1.737.16" transform="translate(-24.13 -11.967)" fill="none" stroke="#000" stroke-miterlimit="10" stroke-width="1.027"/>
    <path id="Path_1948" data-name="Path 1948" d="M118.452,59.7s-3.374-1.109-5,1.567" transform="translate(-21.113 -11.067)" fill="none" stroke="#000" stroke-miterlimit="10" stroke-width="1.027"/>
    <path id="Path_1949" data-name="Path 1949" d="M134.584,56.128a6.39,6.39,0,0,1,5.137-.669" transform="translate(-25.046 -10.27)" fill="none" stroke="#000" stroke-miterlimit="10" stroke-width="1.027"/>
    <path id="Path_1950" data-name="Path 1950" d="M178.542,60.024a10.868,10.868,0,0,1-3.481-7.777c0-4.846-2.039-24.051,4.59-28.719s14.344-3,18.815-3.589c7.251-.961,14.553,1.713,14.553,1.713,7.148,2.848,9,7.848,9,7.848a32.2,32.2,0,0,1,1.79,13.772" transform="translate(-32.524 -3.672)" fill="none" stroke="#000" stroke-miterlimit="10" stroke-width="1.027"/>
    <path id="Path_1951" data-name="Path 1951" d="M197.562,100.06s-.522,4.494,0,6.325,3.3,2.527,6.252,2.527a7.321,7.321,0,0,0,5.036-2.527v-6.267" transform="translate(-36.723 -18.621)" fill="#fff"/>
    <path id="Path_1952" data-name="Path 1952" d="M197.562,100.06s-.522,4.494,0,6.325,3.3,2.527,6.252,2.527a7.321,7.321,0,0,0,5.036-2.527v-6.267" transform="translate(-36.723 -18.621)" fill="none" stroke="#000" stroke-miterlimit="10" stroke-width="1.027"/>
    <path id="Path_1953" data-name="Path 1953" d="M191.093,100.393s-26.306-1.636-27.882,35.528l-.814,12.257" transform="translate(-30.222 -18.681)" fill="none" stroke="#000" stroke-miterlimit="10" stroke-width="1.027"/>
    <path id="Path_1954" data-name="Path 1954" d="M211.484,100.106s20.123-3.463,29.085,27.743" transform="translate(-39.357 -18.608)" fill="none" stroke="#000" stroke-miterlimit="10" stroke-width="1.027"/>
    <path id="Path_1955" data-name="Path 1955" d="M230.394,70.005s1.626-2.173,2.289,0-.578,7.026-1.888,7.357a2.258,2.258,0,0,1-2.084-.425" transform="translate(-42.562 -12.848)" fill="none" stroke="#000" stroke-miterlimit="10" stroke-width="1.027"/>
    <path id="Path_1956" data-name="Path 1956" d="M178.445,72.574s-1.626-2.173-2.289,0,.578,7.026,1.888,7.356a2.257,2.257,0,0,0,2.084-.424" transform="translate(-32.748 -13.326)" fill="none" stroke="#000" stroke-miterlimit="10" stroke-width="1.027"/>
    <rect id="Rectangle_2615" data-name="Rectangle 2615" width="26.803" height="34.193" transform="translate(88.971 99.068)" fill="none" stroke="#000" stroke-miterlimit="10" stroke-width="1.027"/>
    <rect id="Rectangle_2616" data-name="Rectangle 2616" width="26.804" height="34.193" transform="translate(87.107 99.068)" fill="#fff"/>
    <rect id="Rectangle_2617" data-name="Rectangle 2617" width="26.804" height="34.193" transform="translate(87.107 99.068)" fill="none" stroke="#000" stroke-miterlimit="10" stroke-width="1.027"/>
    <path id="Path_1957" data-name="Path 1957" d="M243.377,129.841,259.045,110.7l12.3,6.651-21.638,26.131a11.7,11.7,0,0,1-11,4.407,8.9,8.9,0,0,1-3.151-.829c-1.546-.851-1.945-1.749-2.771-3.159l-6.213-12.65" transform="translate(-42.165 -20.6)" fill="none" stroke="#000" stroke-miterlimit="10" stroke-width="1.027"/>
    <line id="Line_1329" data-name="Line 1329" y2="18.325" transform="translate(147.398 110.054)" fill="none" stroke="#000" stroke-miterlimit="10" stroke-width="1.027"/>
    <path id="Path_1958" data-name="Path 1958" d="M266.468,106.8s-.313-13.314,2.712-12.06a3.129,3.129,0,0,1,1.9,3.322s4.511-9.669,7.683-8.106,3.3,10.316,0,15.328a21.736,21.736,0,0,1-4.978,5.476Z" transform="translate(-49.587 -16.71)" fill="#fff"/>
    <path id="Path_1959" data-name="Path 1959" d="M266.468,106.8s-.313-13.314,2.712-12.06a3.129,3.129,0,0,1,1.9,3.322s4.511-9.669,7.683-8.106,3.3,10.316,0,15.328a21.736,21.736,0,0,1-4.978,5.476Z" transform="translate(-49.587 -16.71)" fill="none" stroke="#000" stroke-miterlimit="10" stroke-width="1.027"/>
    <path id="Path_1960" data-name="Path 1960" d="M216.949,69.945a1.385,1.385,0,1,1-1.385-1.384,1.386,1.386,0,0,1,1.385,1.384" transform="translate(-39.858 -12.759)"/>
    <path id="Path_1961" data-name="Path 1961" d="M196.7,71.053a1.385,1.385,0,1,1-1.385-1.385,1.386,1.386,0,0,1,1.385,1.385" transform="translate(-36.091 -12.965)"/>
    <path id="Path_1962" data-name="Path 1962" d="M204.87,69.16a41.275,41.275,0,0,1,2.526,5.8,2.529,2.529,0,0,1,.195,1.392,1.756,1.756,0,0,1-1.206,1.166,5.181,5.181,0,0,1-1.737.16" transform="translate(-38.084 -12.871)" fill="none" stroke="#000" stroke-miterlimit="10" stroke-width="1.027"/>
    <path id="Path_1963" data-name="Path 1963" d="M198.73,86.417s3.787,4.39,11.387,0" transform="translate(-36.983 -16.082)" fill="none" stroke="#000" stroke-miterlimit="10" stroke-width="1.027"/>
    <path id="Path_1964" data-name="Path 1964" d="M196.318,63.648s-2.563-1.545-4.462.551" transform="translate(-35.704 -11.743)" fill="none" stroke="#000" stroke-miterlimit="10" stroke-width="1.027"/>
    <path id="Path_1965" data-name="Path 1965" d="M212.484,63.418s3.51-2.489,4.964,0" transform="translate(-39.543 -11.596)" fill="none" stroke="#000" stroke-miterlimit="10" stroke-width="1.027"/>
    <path id="Path_1966" data-name="Path 1966" d="M254.09,51.519s-1.05,11.142,2.7,13.868,10.115,1.387,13.952-2.712" transform="translate(-47.26 -9.588)" fill="none" stroke="#000" stroke-miterlimit="10" stroke-width="1.027"/>
    <path id="Path_1967" data-name="Path 1967" d="M101.124,155.091a71.451,71.451,0,0,0,9.044-6.659s2.767.507,7.379-2.649,6.067-6.576,5.586-9.966-3.057-4.683-5.417-3.033-6.907,5.622-6.907,5.622.572-6.623-2.2-5.451c-1.1.466-1.491,7.227-1.491,7.227s-.612,2.784-10.448,6.691" transform="translate(-17.99 -24.578)" fill="#fff"/>
    <path id="Path_1968" data-name="Path 1968" d="M101.124,155.091a71.451,71.451,0,0,0,9.044-6.659s2.767.507,7.379-2.649,6.067-6.576,5.586-9.966-3.057-4.683-5.417-3.033-6.907,5.622-6.907,5.622.572-6.623-2.2-5.451c-1.1.466-1.491,7.227-1.491,7.227s-.612,2.784-10.448,6.691" transform="translate(-17.99 -24.578)" fill="none" stroke="#000" stroke-miterlimit="10" stroke-width="1.027"/>
    <path id="Path_1969" data-name="Path 1969" d="M92.754,164.374l6.375-4.239-7.586-15.507L81.172,151.3" transform="translate(-15.106 -26.915)" fill="none" stroke="#000" stroke-miterlimit="10" stroke-width="1.027"/>
    <path id="Path_1970" data-name="Path 1970" d="M113.994,93.288s-1.662,7.091-1.5,8.662c0,0,7.328,8.976,16.135,0l-1.109-6.784" transform="translate(-20.933 -17.361)" fill="#fff"/>
    <path id="Path_1971" data-name="Path 1971" d="M113.994,93.288s-1.662,7.091-1.5,8.662c0,0,7.328,8.976,16.135,0l-1.109-6.784" transform="translate(-20.933 -17.361)" fill="none" stroke="#000" stroke-miterlimit="10" stroke-width="1.027"/>
    <path id="Path_1972" data-name="Path 1972" d="M98.968,70.184c2.5,4.6,6.414,8.148,12.51,10.7,7.685,3.213,17.578,3.134,23.292-2.926,2.946-3.125,4.413-6.495,5.229-11.589,1.436-8.972-3.816-30.678-4.33-39.749" transform="translate(-18.418 -4.953)" fill="none" stroke="#000" stroke-miterlimit="10" stroke-width="1.027"/>
    <path id="Path_1973" data-name="Path 1973" d="M117.385,14.278c7.482.44,12.759,1.758,16.89,8.131s9.054,6.153,9.054,6.153,1.319.879-5.494,3.737-15.224-4.962-15.224-4.962-.5,7.441-12.269,10.3S98.968,49.372,98.968,49.372" transform="translate(-18.417 -2.657)" fill="#fff"/>
    <path id="Path_1974" data-name="Path 1974" d="M117.385,14.278c7.482.44,12.759,1.758,16.89,8.131s9.054,6.153,9.054,6.153,1.319.879-5.494,3.737-15.224-4.962-15.224-4.962-.5,7.441-12.269,10.3S98.968,49.372,98.968,49.372" transform="translate(-18.417 -2.657)" fill="none" stroke="#000" stroke-miterlimit="10" stroke-width="1.027"/>
    <path id="Path_1975" data-name="Path 1975" d="M186.6,132.071h10.276s.807,8.013-4.193,8.6c-4.109.486-6.328-1.553-6.083-8.6" transform="translate(-34.722 -24.578)" fill="#e1cdfa"/>
    <path id="Path_1976" data-name="Path 1976" d="M188.7,132.071h10.276s.806,8.013-4.193,8.6C190.674,141.161,188.455,139.122,188.7,132.071Z" transform="translate(-35.113 -24.578)" fill="none" stroke="#000" stroke-miterlimit="10" stroke-width="1.116"/>
    <path id="Path_1977" data-name="Path 1977" d="M98.3,19.453s16.167-3.078,18.446-5.92c0,0,1.269-.636.865.832s-9.427,6-19.311,6.048c0,0-1.206-.176,0-.96" transform="translate(-18.193 -2.493)" fill="#e1cdfa"/>
    <path id="Path_1978" data-name="Path 1978" d="M208.582,43.159s7.026-.322,9.235,3.317-1,11.432,4.214,16.009c0,0-3.412,30.481-23.887,27.638s-18.468-26.305-18.468-26.305a3.282,3.282,0,0,0,2.61-2.914c.4-2.607-.4-15.352,3.814-17.744s6.222-.14,11.443,0" transform="translate(-33.427 -7.828)" fill="none" stroke="#000" stroke-miterlimit="10" stroke-width="1.027"/>
  </g>
</svg>
