<svg xmlns="http://www.w3.org/2000/svg" xmlns:xlink="http://www.w3.org/1999/xlink" width="320" height="188.014" viewBox="0 0 320 188.014">
  <defs>
    <clipPath id="clip-path">
      <rect id="Rectangle_2606" data-name="Rectangle 2606" width="320" height="188.014" fill="none"/>
    </clipPath>
  </defs>
  <g id="Group_1191" data-name="Group 1191" transform="translate(-192 -1311)">
    <g id="Group_1103" data-name="Group 1103" transform="translate(192 1311)">
      <g id="Group_1102" data-name="Group 1102" clip-path="url(#clip-path)">
        <path id="Path_1807" data-name="Path 1807" d="M3.841,87.835s15.652-35.326,41.5-29.041,18.085-11.572,59.807-27.855,51.3-14.463,77.674-9.726S249.687,72.834,290.57,86.988s23.426,51.457-.178,54.957-84.584-7.559-123.07,2.867-41.512,31.457-114.6,12.324-48.885-69.3-48.885-69.3" transform="translate(0 -1.356)" fill="#f8f9ff"/>
        <path id="Path_1808" data-name="Path 1808" d="M287.412,100.677s11.61.366,17.926-3.421c0,0,1.449-.4.91-1.158s-6.26-9.971-7.012-15.678-7.69-9.42-7.69-9.42l-8,19.589Z" transform="translate(-21.474 -5.377)" fill="#fff"/>
        <path id="Path_1809" data-name="Path 1809" d="M191.455,57.03s-1.311,2.416-3.439,1.923l-.624-.153,1.012,2.525a4.176,4.176,0,0,0,3.317.806c1.771-.449,1.976-.722,1.976-.722a32.584,32.584,0,0,0-1.612,10.712c.284,5.223.446,10.44,2.44,14.419s4.9,10.728,14.471,9.807a22.441,22.441,0,0,0,14.592-9.094s-3.374-6.547.708-9.91l5.073-3.362,1.407-.689L230.3,63.2s-2.67-12.211-8.578-14.206-11.112-4.2-24.324,3.217Z" transform="translate(-14.192 -3.564)" fill="#fff"/>
        <path id="Path_1810" data-name="Path 1810" d="M210.642,108.372s-16.154,1.225-20.2,24.241A259.244,259.244,0,0,0,187.194,166a53.64,53.64,0,0,1-3.362,17.038h65.094s5.089-80.929-38.284-74.669" transform="translate(-13.922 -8.181)" fill="#dec7fa"/>
        <path id="Path_1811" data-name="Path 1811" d="M275.209,105.6s-16.155,1.225-20.2,24.241-2.874,46.831-2.874,46.831,47.334-4.847,52.137-8.678c5.426-3.253,5.708-10.566,5.708-10.566s6.282-55.961-34.771-51.827" transform="translate(-19.083 -7.981)" fill="#fff"/>
        <path id="Path_1812" data-name="Path 1812" d="M275.209,105.6s-16.155,1.225-20.2,24.241-2.874,46.831-2.874,46.831,47.334-4.847,52.137-8.678c5.426-3.253,5.708-10.566,5.708-10.566S316.262,101.471,275.209,105.6Z" transform="translate(-19.083 -7.981)" fill="none" stroke="#000" stroke-miterlimit="10" stroke-width="1.024"/>
        <path id="Path_1813" data-name="Path 1813" d="M276.436,124.247s12.275,1.57,26.3-7.836l2.725,3.043s-12.765,11.69-32.884,7.95Z" transform="translate(-20.643 -8.816)" fill="#71e2da"/>
        <path id="Path_1814" data-name="Path 1814" d="M279.359,134.94S295.2,136.4,308.6,126.99l1.265,4.081s-14.276,12.03-33.818,7.025Z" transform="translate(-20.906 -9.618)" fill="#71e2da"/>
        <path id="Path_1815" data-name="Path 1815" d="M278.762,145.346a44.073,44.073,0,0,0,32.337-7l.878,3.967a43,43,0,0,1-35.262,7.023Z" transform="translate(-20.957 -10.478)" fill="#71e2da"/>
        <path id="Path_1816" data-name="Path 1816" d="M294.324,145.92s1.978,8,1.046,13a1.767,1.767,0,0,1-1.335,1.632c-1.83.74-3.8,1.07-5.68,1.669a20.614,20.614,0,0,0-7.64,4.43" transform="translate(-21.26 -11.051)" fill="none" stroke="#000" stroke-miterlimit="10" stroke-width="1.024"/>
        <path id="Path_1817" data-name="Path 1817" d="M275.209,105.6s-16.155,1.225-20.2,24.241-2.874,46.831-2.874,46.831,47.334-4.847,52.137-8.678c5.426-3.253,5.708-10.566,5.708-10.566S316.262,101.471,275.209,105.6Z" transform="translate(-19.083 -7.981)" fill="none" stroke="#000" stroke-miterlimit="10" stroke-width="1.024"/>
        <path id="Path_1818" data-name="Path 1818" d="M284.266,98.092s4.531,3.449,14.226.771c8.822-2.438,7.811-3.723,7.811-3.723a46.6,46.6,0,0,1-6.422-12.7c-2.082-6.894,1.038-18.425-5.492-24.1" transform="translate(-21.529 -4.419)" fill="none" stroke="#000" stroke-miterlimit="10" stroke-width="0.843"/>
        <path id="Path_1819" data-name="Path 1819" d="M274.564,103.225s2.863,3.325,1.622,9.245c0,0,4.722.841,8.366-.875l1.133-.654c.731-.422,2.154-1.854,2.007-2.685l-1.66-8.406s-5.5,4.1-11.467,3.376" transform="translate(-20.794 -7.562)" fill="#fff"/>
        <path id="Path_1820" data-name="Path 1820" d="M274.564,103.225s2.863,3.325,1.622,9.245c0,0,4.722.841,8.366-.875l1.133-.654c.731-.422,2.154-1.854,2.007-2.685l-1.66-8.406S280.535,103.945,274.564,103.225Z" transform="translate(-20.794 -7.562)" fill="none" stroke="#000" stroke-miterlimit="10" stroke-width="1.027"/>
        <path id="Path_1821" data-name="Path 1821" d="M284.845,101.491s.668,5.936,1.289,7.179,1.547-1.41,1.547-1.41l-.777-7.183Z" transform="translate(-21.573 -7.579)" fill="#bdbcec"/>
        <path id="Path_1822" data-name="Path 1822" d="M271.652,51.642s1.557.907-1.518,2.351-6.039,2.463-7.317,5.861-2.4,2.987-2.4,2.987,1.078-7.384,5.816-9.476,5.421-1.724,5.421-1.724" transform="translate(-19.722 -3.909)" fill="#bdbcec"/>
        <path id="Path_1823" data-name="Path 1823" d="M292.939,79.9s1.1-2.336,2.746-1.3,1.842,6.114-1.9,7.842" transform="translate(-22.186 -5.933)" fill="#fff"/>
        <path id="Path_1824" data-name="Path 1824" d="M292.939,79.9s1.1-2.336,2.746-1.3,1.842,6.114-1.9,7.842" transform="translate(-22.186 -5.933)" fill="none" stroke="#000" stroke-miterlimit="10" stroke-width="0.843"/>
        <path id="Path_1825" data-name="Path 1825" d="M277.966,80.261a1.071,1.071,0,1,1-.96-1.171,1.07,1.07,0,0,1,.96,1.171" transform="translate(-20.89 -5.989)"/>
        <path id="Path_1826" data-name="Path 1826" d="M289,91.409c-.623.856-2.531,2.979-2.531,2.979-4.3,4.411-11.2,6.435-16.445,4.385a15.173,15.173,0,0,1-8.439-8.416c-4.778-13.215-1.978-21.764-1.323-25.678,0,0-.573-7.632,4.955-10.853s13.3-3.244,18.032-.592" transform="translate(-19.604 -3.887)" fill="none" stroke="#000" stroke-miterlimit="10" stroke-width="0.843"/>
        <path id="Path_1827" data-name="Path 1827" d="M270.07,87.695c.006.011.017.02,0,.032s0,.012,0,.016a.21.21,0,0,0,.084.027l.068.007s0,.01-.006.013c-.019.009-.047.013-.055.03a.081.081,0,0,1-.025.007l-.091.008a.128.128,0,0,0-.053.006c.037.009.078,0,.11.008s0,.019,0,.03-.012.02-.02.03l-.01.006L270,87.93h-.047c-.023,0-.048,0-.059.015a.434.434,0,0,1-.128.019,2.55,2.55,0,0,1-.391-.026l-.128-.019-.1-.018-.024-.006a1.134,1.134,0,0,1-.255-.059,1.724,1.724,0,0,1-.524-.267,1.815,1.815,0,0,1-.213-.184,1.248,1.248,0,0,1-.207-.276,1.19,1.19,0,0,1-.144-.413,1.459,1.459,0,0,1-.018-.189,1.051,1.051,0,0,1,.008-.144,2.346,2.346,0,0,1,.082-.411c.055-.19.12-.368.184-.547.03-.083.063-.17.092-.253.006-.018.006-.014.021-.058a2.061,2.061,0,0,1,.067-.2l.162-.426c.016-.041.028-.069.057-.143.067-.161.087-.21.125-.3l.006-.014c.052-.159.122-.311.187-.464.018-.04.043-.1.064-.141l.017-.043c.077-.182.1-.23.138-.327l.029-.064c.044-.117.1-.231.153-.344.021-.046.027-.059.069-.155s.04-.09.058-.134l.183-.4c.031-.065.062-.123.093-.187.048-.1.1-.189.157-.282.019-.031.047-.075.064-.105a1.669,1.669,0,0,1,.115-.157c.009-.01.02-.023.028-.012l.008-.006a.056.056,0,0,1,.036-.023c.007,0,.02-.007.023.006s.007.008.013.008.015.014,0,.032a.085.085,0,0,1-.016.027.216.216,0,0,0-.043.093c-.016.055-.029.109-.042.155s-.035.111-.05.156c-.041.113-.072.2-.1.276-.068.17-.1.242-.156.388-.047.112-.059.142-.09.211-.01.028-.025.064-.035.084-.044.1-.086.2-.128.3l-.017.033-.036.084c0,.01-.016.037-.019.05-.051.118-.076.18-.112.26-.006.02-.029.078-.04.106-.044.116-.076.192-.132.343-.107.275-.136.349-.2.511-.041.1-.071.181-.107.271-.04.105-.083.224-.124.336-.012.028-.018.048-.029.079l-.146.424c-.019.054-.035.107-.059.158l-.009.021c-.059.177-.124.348-.167.518a1.23,1.23,0,0,0-.012.676,1.2,1.2,0,0,0,.113.237l0,.006.091.113a1.255,1.255,0,0,0,.215.185,1.64,1.64,0,0,0,.258.146l.129.05a2.513,2.513,0,0,0,.61.111l.09.01a.629.629,0,0,0,.1.006,1.67,1.67,0,0,1,.192.018.191.191,0,0,1,.067.018l.056.02" transform="translate(-20.279 -6.147)"/>
        <path id="Path_1828" data-name="Path 1828" d="M264.961,80.625A1.071,1.071,0,1,1,264,79.454a1.071,1.071,0,0,1,.961,1.171" transform="translate(-19.905 -6.017)"/>
        <path id="Path_1829" data-name="Path 1829" d="M271.062,94.622a7.406,7.406,0,0,0,7.512-2.549c.2-.242-.4-.919-.551-.732a7.178,7.178,0,0,1-4.786,2.665,6.65,6.65,0,0,1-2.487-.139c-.2-.056-.166.185-.124.3a.792.792,0,0,0,.435.458" transform="translate(-20.493 -6.915)" fill="#1c1a68"/>
        <path id="Path_1830" data-name="Path 1830" d="M260.338,76.327a6.371,6.371,0,0,1,4.948-1.5" transform="translate(-19.717 -5.663)" fill="none" stroke="#000" stroke-miterlimit="10" stroke-width="0.5"/>
        <path id="Path_1831" data-name="Path 1831" d="M274.844,74.094A6.381,6.381,0,0,1,279.9,75.2" transform="translate(-20.815 -5.602)" fill="none" stroke="#000" stroke-miterlimit="10" stroke-width="0.5"/>
        <path id="Path_1832" data-name="Path 1832" d="M208.53,102.7s-16.154,1.225-20.2,24.241a259.574,259.574,0,0,0-3.249,33.389,53.651,53.651,0,0,1-3.362,17.039h65.094S251.9,96.441,208.53,102.7Z" transform="translate(-13.763 -7.752)" fill="none" stroke="#000" stroke-miterlimit="10" stroke-width="1.024"/>
        <path id="Path_1833" data-name="Path 1833" d="M201.03,148.607c0,4.609-.467,12.469-.468,17.08,0,.714,0,7.367-2.4,12.413" transform="translate(-15.007 -11.255)" fill="#fff"/>
        <path id="Path_1834" data-name="Path 1834" d="M201.03,148.607c0,4.609-.467,12.469-.468,17.08,0,.714,0,7.367-2.4,12.413" transform="translate(-15.007 -11.255)" fill="none" stroke="#000" stroke-miterlimit="10" stroke-width="1.024"/>
        <path id="Path_1835" data-name="Path 1835" d="M232.456,165.081s1,10.22-.065,15.192a1.765,1.765,0,0,1-1.376,1.6c-1.849.693-3.825.971-5.721,1.521a20.614,20.614,0,0,0-7.752,4.231" transform="translate(-16.476 -12.502)" fill="#fff"/>
        <path id="Path_1836" data-name="Path 1836" d="M232.456,165.081s1,10.22-.065,15.192a1.765,1.765,0,0,1-1.376,1.6c-1.849.693-3.825.971-5.721,1.521a20.614,20.614,0,0,0-7.752,4.231" transform="translate(-16.476 -12.502)" fill="none" stroke="#000" stroke-miterlimit="10" stroke-width="1.024"/>
        <path id="Path_1837" data-name="Path 1837" d="M200.021,60.893s2.739,1.306,8.58-1.98a19.663,19.663,0,0,0,10.078,5.4c6.048,1.038,5.874,6.421,5.874,6.421" transform="translate(-15.149 -4.462)" fill="#fff"/>
        <path id="Path_1838" data-name="Path 1838" d="M200.021,60.893s2.739,1.306,8.58-1.98a19.663,19.663,0,0,0,10.078,5.4c6.048,1.038,5.874,6.421,5.874,6.421" transform="translate(-15.149 -4.462)" fill="none" stroke="#000" stroke-miterlimit="10" stroke-width="0.843"/>
        <path id="Path_1839" data-name="Path 1839" d="M226.554,77.008s1.1-2.336,2.746-1.3,1.841,6.114-1.9,7.842" transform="translate(-17.158 -5.714)" fill="#fff"/>
        <path id="Path_1840" data-name="Path 1840" d="M226.554,77.008s1.1-2.336,2.746-1.3,1.841,6.114-1.9,7.842" transform="translate(-17.158 -5.714)" fill="none" stroke="#000" stroke-miterlimit="10" stroke-width="0.843"/>
        <path id="Path_1841" data-name="Path 1841" d="M208.7,100.332s2.383,3.149,1.141,8.488c0,0,4.724.758,8.366-.79l1.134-.591c.731-.38,2.154-1.67,2.007-2.42l-1.68-8.4s-5.1,3.973-10.967,3.712" transform="translate(-15.806 -7.317)" fill="#fff"/>
        <path id="Path_1842" data-name="Path 1842" d="M208.7,100.332s2.383,3.149,1.141,8.488c0,0,4.724.758,8.366-.79l1.134-.591c.731-.38,2.154-1.67,2.007-2.42l-1.68-8.4S214.571,100.593,208.7,100.332Z" transform="translate(-15.806 -7.317)" fill="none" stroke="#000" stroke-miterlimit="10" stroke-width="0.975"/>
        <path id="Path_1843" data-name="Path 1843" d="M198.362,51.74c-5.732,2.533-7.028,6.287-8.248,7.224s-3.285,0-3.285,0c.282.657,1.1,2.08,1.1,2.08,1.758,3.208,5.518.994,5.518.994-.655,3.914-3.457,12.463,1.321,25.677a15.172,15.172,0,0,0,8.44,8.416c5.249,2.05,12.143.027,16.445-4.385" transform="translate(-14.149 -3.918)" fill="none" stroke="#000" stroke-miterlimit="10" stroke-width="0.843"/>
        <path id="Path_1844" data-name="Path 1844" d="M211.582,77.368a1.071,1.071,0,1,1-.961-1.171,1.071,1.071,0,0,1,.961,1.171" transform="translate(-15.862 -5.77)"/>
        <path id="Path_1845" data-name="Path 1845" d="M203.685,84.8c.006.011.018.02,0,.032s0,.011.006.016a.205.205,0,0,0,.083.027l.068.006c0,.006,0,.011-.006.014s-.046.013-.054.03a.081.081,0,0,1-.025.007l-.091.007a.147.147,0,0,0-.053.006c.037.009.079,0,.111.008s0,.019,0,.03-.013.02-.021.03l-.01.006-.081.015h-.046c-.023,0-.049,0-.059.015a.439.439,0,0,1-.128.019,2.654,2.654,0,0,1-.391-.026l-.128-.019-.1-.018L202.745,85a1.149,1.149,0,0,1-.257-.059,1.707,1.707,0,0,1-.522-.268,1.815,1.815,0,0,1-.214-.183,1.278,1.278,0,0,1-.207-.276,1.229,1.229,0,0,1-.144-.413,1.456,1.456,0,0,1-.018-.189,1.222,1.222,0,0,1,.007-.144,2.191,2.191,0,0,1,.082-.411c.055-.19.121-.368.185-.547.03-.083.062-.17.092-.253.006-.018,0-.014.02-.059a2.044,2.044,0,0,1,.067-.2l.161-.426c.017-.041.029-.069.058-.143.067-.161.087-.21.123-.3l.006-.014c.052-.159.122-.311.188-.465.018-.039.043-.094.062-.14.007-.016.007-.015.018-.043.077-.182.1-.23.137-.327.009-.021.008-.02.028-.064.045-.117.1-.231.155-.345l.068-.154c.037-.083.04-.09.059-.135.063-.136.132-.29.183-.4l.092-.188c.048-.1.1-.189.158-.281.018-.031.045-.075.063-.105a1.861,1.861,0,0,1,.116-.157c.009-.01.019-.023.028-.012l.008-.006a.054.054,0,0,1,.036-.023c.007,0,.02-.007.022,0s.007.009.014.009.014.014,0,.032a.188.188,0,0,1-.017.027.227.227,0,0,0-.043.093c-.015.055-.029.109-.042.155s-.035.111-.05.156c-.041.113-.072.2-.1.276-.068.17-.1.242-.157.388l-.088.211c-.011.028-.026.064-.035.084l-.128.3c0,.01-.014.027-.018.033-.012.028-.021.051-.036.084,0,.01-.015.037-.019.05-.051.118-.076.179-.111.26-.007.02-.03.078-.041.106-.044.116-.075.192-.132.342l-.2.512-.107.271c-.039.105-.083.224-.124.336-.011.028-.018.048-.029.079l-.146.424a1.443,1.443,0,0,1-.058.157l-.009.022c-.059.177-.125.348-.167.518a1.23,1.23,0,0,0-.013.676,1.107,1.107,0,0,0,.113.237l0,.006.091.113a1.254,1.254,0,0,0,.215.185,1.64,1.64,0,0,0,.258.146l.13.05a2.506,2.506,0,0,0,.61.111l.089.01a.625.625,0,0,0,.1.006,1.876,1.876,0,0,1,.193.018.169.169,0,0,1,.067.018l.056.02" transform="translate(-15.252 -5.928)"/>
        <path id="Path_1846" data-name="Path 1846" d="M198.576,77.733a1.071,1.071,0,1,1-.96-1.171,1.07,1.07,0,0,1,.96,1.171" transform="translate(-14.877 -5.798)"/>
        <path id="Path_1847" data-name="Path 1847" d="M193.953,73.434a6.374,6.374,0,0,1,4.949-1.5" transform="translate(-14.689 -5.444)" fill="none" stroke="#000" stroke-miterlimit="10" stroke-width="0.5"/>
        <path id="Path_1848" data-name="Path 1848" d="M208.46,71.2a6.384,6.384,0,0,1,5.052,1.106" transform="translate(-15.788 -5.383)" fill="none" stroke="#000" stroke-miterlimit="10" stroke-width="0.5"/>
        <path id="Path_1849" data-name="Path 1849" d="M247.958,130.38s-16.154,1.225-20.2,24.24-3.47,29.435-3.47,29.435h58.44s6.283-57.809-34.771-53.675" transform="translate(-16.984 -9.858)" fill="#fff"/>
        <path id="Path_1850" data-name="Path 1850" d="M247.958,130.38s-16.154,1.225-20.2,24.24-3.47,29.435-3.47,29.435h58.44S289.012,126.245,247.958,130.38Z" transform="translate(-16.984 -9.858)" fill="none" stroke="#000" stroke-miterlimit="10" stroke-width="1.024"/>
        <path id="Path_1851" data-name="Path 1851" d="M245.339,175.274V155.514c0-15.208,3.777-19.8,3.777-19.8" transform="translate(-18.581 -10.278)" fill="none" stroke="#000" stroke-miterlimit="10" stroke-width="0.932"/>
        <path id="Path_1852" data-name="Path 1852" d="M246.672,130.169s-11.81,4.244-15.541,13.768-6.181,30.919-6.181,30.919H244.1s-2.68-25.412,3.468-39.56Z" transform="translate(-17.037 -9.858)" fill="#ffe180"/>
        <path id="Path_1853" data-name="Path 1853" d="M166.923,6.641A6.772,6.772,0,0,0,160.261,0q-14.876,0-29.75,0a6.794,6.794,0,0,0-6.645,6.535q-.035,9.17,0,18.338a6.748,6.748,0,0,0,5.971,6.466c1.613.122,3.24.051,4.862.067.152,0,.3,0,.5,0V41.948l.11.046c.073-.089.142-.179.22-.262q4.65-4.965,9.293-9.935a1.14,1.14,0,0,1,.929-.4q7.234.018,14.466.007a6.8,6.8,0,0,0,6.711-6.686c.006-1.535,0-3.071,0-4.607,0-4.491.01-8.983,0-13.474" transform="translate(-9.38 0)" fill="#ffe180"/>
        <path id="Path_1854" data-name="Path 1854" d="M119.86,115.83c.9.561,3.252,2.087,4.31,2.078a6.584,6.584,0,0,0,3.776-.6c5.837-2.962,7.6-4.006,7.6-4.006s6.311-3.046,6.273-7.175c-.019-2.117-.715-4.647.449-6.49a2.027,2.027,0,0,1,2.021-.913c2.4.42,1.736,4.216,2.618,6.349a1.112,1.112,0,0,0,1.417.579l4.064-1.491c3.88-1.667,9.493-2.227,13.524-2.076,2.325.087,2.854,1.132,2.906,3.2.067,2.731-1.23,4.741-4.429,6.352a31.25,31.25,0,0,1-5.559,2.185c-6.394,1.691-6.8-.458-13.115,5.595-4.949,4.745-13.4,11.779-20.25,12.027-2.85.1-9.565-2.551-12.194-3.658-7.227-3.046-8.9-3.332-16.128-6.378-1.084-.457,2.3-15.472,3.65-15.324,4.269.469,15,7.206,19.069,9.752" transform="translate(-7.341 -7.475)" fill="#fff"/>
        <path id="Path_1855" data-name="Path 1855" d="M119.86,115.83c.9.561,3.252,2.087,4.31,2.078a6.584,6.584,0,0,0,3.776-.6c5.837-2.962,7.6-4.006,7.6-4.006s6.311-3.046,6.273-7.175c-.019-2.117-.715-4.647.449-6.49a2.027,2.027,0,0,1,2.021-.913c2.4.42,1.736,4.216,2.618,6.349a1.112,1.112,0,0,0,1.417.579l4.064-1.491c3.88-1.667,9.493-2.227,13.524-2.076,2.325.087,2.854,1.132,2.906,3.2.067,2.731-1.23,4.741-4.429,6.352a31.25,31.25,0,0,1-5.559,2.185c-6.394,1.691-6.8-.458-13.115,5.595-4.949,4.745-13.4,11.779-20.25,12.027-2.85.1-9.565-2.551-12.194-3.658-7.227-3.046-8.9-3.332-16.128-6.378-1.084-.457,2.3-15.472,3.65-15.324C105.06,106.547,115.794,113.284,119.86,115.83Z" transform="translate(-7.341 -7.475)" fill="none" stroke="#000" stroke-miterlimit="10" stroke-width="1.027"/>
        <path id="Path_1856" data-name="Path 1856" d="M82.854,120.942l10.466,5.89a2.938,2.938,0,0,0,1.782.543,2.835,2.835,0,0,0,1.6-1.115c4.21-4.821,8.167-13.684,9.508-19.942A109.7,109.7,0,0,1,81.858,83.524s-5.668-6.882-14.666-6.787-21.436-1.22-28.5,4.554C31.56,87.117,25.932,97.03,23.9,106.065c-2.02,8.985.181,29.121.181,29.121l-3.129,42.7c17.546-.743,32.319-1.487,49.865-2.231a4.308,4.308,0,0,0,2.5-.626c.6-.458,3.493-.777,3.6-1.52,3.061-20.611,5.166-44.077,6.648-64.983" transform="translate(-1.587 -5.807)" fill="#fff"/>
        <path id="Path_1857" data-name="Path 1857" d="M82.854,120.942l10.466,5.89a2.938,2.938,0,0,0,1.782.543,2.835,2.835,0,0,0,1.6-1.115c4.21-4.821,8.167-13.684,9.508-19.942A109.7,109.7,0,0,1,81.858,83.524s-5.668-6.882-14.666-6.787-21.436-1.22-28.5,4.554C31.56,87.117,25.932,97.03,23.9,106.065c-2.02,8.985.181,29.121.181,29.121l-3.129,42.7c17.546-.743,32.319-1.487,49.865-2.231a4.308,4.308,0,0,0,2.5-.626c.6-.458,3.493-.777,3.6-1.52,3.061-20.611,5.166-44.077,6.648-64.983" transform="translate(-1.587 -5.807)" fill="none" stroke="#000" stroke-miterlimit="10" stroke-width="1.027"/>
        <path id="Path_1858" data-name="Path 1858" d="M236.184,168.6c0,4.61.458,16.167.457,20.777a3.727,3.727,0,0,1-.4,2.07,1.285,1.285,0,0,1-1.834.409" transform="translate(-17.752 -12.769)" fill="none" stroke="#000" stroke-miterlimit="10" stroke-width="1.024"/>
        <path id="Path_1859" data-name="Path 1859" d="M139.46,17.91a5.283,5.283,0,0,1,5.2-5.18q11.608,0,23.218,0a5.3,5.3,0,0,1,5.185,5.1q.028,7.157,0,14.312a5.265,5.265,0,0,1-4.66,5.045c-1.259.1-2.529.041-3.793.054-.119,0-.238,0-.388,0v8.224l-.086.037c-.056-.069-.111-.14-.171-.205q-3.628-3.875-7.254-7.754a.887.887,0,0,0-.725-.31q-5.644.015-11.289.006a5.3,5.3,0,0,1-5.238-5.217c0-1.2,0-2.4,0-3.6C139.457,24.921,139.448,21.416,139.46,17.91Z" transform="translate(-10.562 -0.964)" fill="none" stroke="#000" stroke-miterlimit="10" stroke-width="0.776"/>
        <path id="Path_1860" data-name="Path 1860" d="M267.9,164.514s1,10.22-.066,15.192a2.261,2.261,0,0,1-.431,1.037,2.284,2.284,0,0,1-.945.561c-1.849.693-3.826.97-5.722,1.521a20.6,20.6,0,0,0-7.751,4.231" transform="translate(-19.16 -12.459)" fill="#fff"/>
        <path id="Path_1861" data-name="Path 1861" d="M267.9,164.514s1,10.22-.066,15.192a2.261,2.261,0,0,1-.431,1.037,2.284,2.284,0,0,1-.945.561c-1.849.693-3.826.97-5.722,1.521a20.6,20.6,0,0,0-7.751,4.231" transform="translate(-19.16 -12.459)" fill="none" stroke="#000" stroke-miterlimit="10" stroke-width="1.024"/>
        <path id="Path_1862" data-name="Path 1862" d="M91.387,123.4q2.1,1.12,4.088,2.447a18.62,18.62,0,0,0,3.42,2.016,5,5,0,0,0,3.869.088c-.02,1.5-1.661,2.564-3.162,2.526a8.615,8.615,0,0,1-4.137-1.642l-5.943-3.67c-.656-.406-2.031-1.14-1.117-2.047.713-.706,2.344-.057,2.982.283" transform="translate(-6.672 -9.3)" fill="#bdbcec"/>
        <path id="Path_1863" data-name="Path 1863" d="M77.864,80.1a1.334,1.334,0,0,0,.166-1.585,1.841,1.841,0,0,0-.673-.5,16.888,16.888,0,0,0-7.9-1.838c-3.539.047-4.662.8-3.1,4.3.776,1.745,1.756,2.923,3.777,2.915s6.451-1.751,7.731-3.3" transform="translate(-4.974 -5.77)" fill="#bdbcec"/>
        <path id="Path_1864" data-name="Path 1864" d="M22.694,130.014a69.315,69.315,0,0,0-1.235,13.259,8.914,8.914,0,0,0,5.068,8.143c10.026,5.311,41.039,11.42,47.223,11.438,1.047,0,3.327,1.756,5.322,2.446a64.834,64.834,0,0,0,9.173,1.945c.835.128,3.661.239,4.5.229a10.352,10.352,0,0,0,8.162-3.5c4.021-4.371-9.082-6.628-14.626-7.325,0,0,5.029-2.19,3.885-3.467-1.518-1.694-9.519.519-11,.823-3.313.677-14.625-3.233-14.625-3.233L42.48,141.59s-3.166-1.136-3.765-2.409a10.072,10.072,0,0,1-.639-5.768Z" transform="translate(-1.625 -9.847)" fill="#fff"/>
        <path id="Path_1865" data-name="Path 1865" d="M22.694,130.014a69.315,69.315,0,0,0-1.235,13.259,8.914,8.914,0,0,0,5.068,8.143c10.026,5.311,41.039,11.42,47.223,11.438,1.047,0,3.327,1.756,5.322,2.446a64.834,64.834,0,0,0,9.173,1.945c.835.128,3.661.239,4.5.229a10.352,10.352,0,0,0,8.162-3.5c4.021-4.371-9.082-6.628-14.626-7.325,0,0,5.029-2.19,3.885-3.467-1.518-1.694-9.519.519-11,.823-3.313.677-14.625-3.233-14.625-3.233L42.48,141.59s-3.166-1.136-3.765-2.409a10.072,10.072,0,0,1-.639-5.768Z" transform="translate(-1.625 -9.847)" fill="none" stroke="#000" stroke-miterlimit="10" stroke-width="1.027"/>
        <path id="Path_1866" data-name="Path 1866" d="M41.529,123.2l-1.337,15.658s-18.008,2.166-22.7.348c0,0,1.791-17.1,6.153-30.731" transform="translate(-1.324 -8.215)" fill="#fff"/>
        <path id="Path_1867" data-name="Path 1867" d="M41.529,123.2l-1.337,15.658s-18.008,2.166-22.7.348c0,0,1.791-17.1,6.153-30.731" transform="translate(-1.324 -8.215)" fill="none" stroke="#000" stroke-miterlimit="10" stroke-width="1.027"/>
      </g>
    </g>
    <g id="Group_1109" data-name="Group 1109" transform="translate(192 1311)">
      <g id="Group_1108" data-name="Group 1108" clip-path="url(#clip-path)">
        <path id="Path_1868" data-name="Path 1868" d="M227.072,89.571s-3.978-4.181-1.039-8.995a8.943,8.943,0,0,1,4.219-3.516c1.657-.7,4.141-2.65,7.724-4.459,5.8-2.928,15.9-.947,15.9-.947a25.47,25.47,0,0,1,12.536,5.558c4.714,4.01,5.6,12.358,5.975,15.228s.434,3.836,3.217,8.791c2.517,4.484,1.521,9.849-.836,13.73-.622,1.022-1.86,4.041.517,9.41,2.877,6.5-.028,8.8-3.307,13.525" transform="translate(-17.037 -5.377)" fill="#fff"/>
        <path id="Path_1869" data-name="Path 1869" d="M227.072,89.571s-3.978-4.181-1.039-8.995a8.943,8.943,0,0,1,4.219-3.516c1.657-.7,4.141-2.65,7.724-4.459,5.8-2.928,15.9-.947,15.9-.947a25.47,25.47,0,0,1,12.536,5.558c4.714,4.01,5.6,12.358,5.975,15.228s.434,3.836,3.217,8.791c2.517,4.484,1.521,9.849-.836,13.73-.622,1.022-1.86,4.041.517,9.41,2.877,6.5-.028,8.8-3.307,13.525" transform="translate(-17.037 -5.377)" fill="none" stroke="#000" stroke-miterlimit="10" stroke-width="0.843"/>
        <path id="Path_1870" data-name="Path 1870" d="M265.727,104.676s1.1-2.336,2.746-1.3,1.841,6.114-1.9,7.841" transform="translate(-20.125 -7.809)" fill="#fff"/>
        <path id="Path_1871" data-name="Path 1871" d="M265.727,104.676s1.1-2.336,2.746-1.3,1.841,6.114-1.9,7.841" transform="translate(-20.125 -7.809)" fill="none" stroke="#000" stroke-miterlimit="10" stroke-width="0.843"/>
        <path id="Path_1872" data-name="Path 1872" d="M261.534,133.5s4.877,9.884,2.244,41.4h22.1s1.49-34.9-21.464-43.233l-3.131-.833Z" transform="translate(-19.788 -9.909)" fill="#ffe180"/>
        <path id="Path_1873" data-name="Path 1873" d="M267.764,66.758c3.065.926,10.013-3,10.013-3s.056-.036,3.367,5.044c3.565,5.471,10.179,5.408,10.179,5.408" transform="translate(-20.279 -4.829)" fill="#fff"/>
        <path id="Path_1874" data-name="Path 1874" d="M267.764,66.758c3.065.926,10.013-3,10.013-3s.056-.036,3.367,5.044c3.565,5.471,10.179,5.408,10.179,5.408" transform="translate(-20.279 -4.829)" fill="none" stroke="#000" stroke-miterlimit="10" stroke-width="0.843"/>
        <path id="Path_1875" data-name="Path 1875" d="M204.048,90.341s3.753-.152,4.987-2.055,1.982,2.495,0,3.155" transform="translate(-15.454 -6.65)" fill="none" stroke="#000" stroke-miterlimit="10" stroke-width="1.027"/>
        <path id="Path_1876" data-name="Path 1876" d="M216.81,129.747a1.442,1.442,0,1,1-1.443-1.443A1.442,1.442,0,0,1,216.81,129.747Z" transform="translate(-16.202 -9.717)" fill="none" stroke="#000" stroke-miterlimit="10" stroke-width="1.027"/>
        <path id="Path_1877" data-name="Path 1877" d="M216.81,149.721a1.442,1.442,0,1,1-1.443-1.442A1.442,1.442,0,0,1,216.81,149.721Z" transform="translate(-16.202 -11.23)" fill="none" stroke="#000" stroke-miterlimit="10" stroke-width="1.027"/>
        <path id="Path_1878" data-name="Path 1878" d="M216.81,167.426a1.442,1.442,0,1,1-1.443-1.442A1.443,1.443,0,0,1,216.81,167.426Z" transform="translate(-16.202 -12.571)" fill="none" stroke="#000" stroke-miterlimit="10" stroke-width="1.027"/>
        <path id="Path_1879" data-name="Path 1879" d="M208.875,102.936s-6.849,2.738-6.953,7.292,1.154,5.057,1.154,5.057,4.184-6.431,6.595-6.23" transform="translate(-15.292 -7.796)" fill="none" stroke="#000" stroke-miterlimit="10" stroke-width="1.027"/>
        <path id="Path_1880" data-name="Path 1880" d="M221.977,105.5a9.586,9.586,0,0,1,4.012,3.093c1.64,2.235.192,6.82-2.877,9.483,0,0-2.324,2.209-2.422.113s-2.039-8.744-3.036-9.321" transform="translate(-16.484 -7.99)" fill="none" stroke="#000" stroke-miterlimit="10" stroke-width="0.932"/>
        <path id="Path_1881" data-name="Path 1881" d="M247.958,130.38s-16.154,1.225-20.2,24.24-3.47,29.435-3.47,29.435h58.44S289.012,126.245,247.958,130.38Z" transform="translate(-16.984 -9.858)" fill="none" stroke="#000" stroke-miterlimit="10" stroke-width="1.024"/>
        <path id="Path_1882" data-name="Path 1882" d="M247.351,127.446s2.863,2.953,1.622,8.216c0,0,4.723.747,8.366-.778l1.133-.582c.731-.374,2.154-1.647,2.007-2.386l-1.66-8.293s-5.5,4.462-11.468,3.823" transform="translate(-18.733 -9.363)" fill="#fff"/>
        <path id="Path_1883" data-name="Path 1883" d="M247.351,127.446s2.863,2.953,1.622,8.216c0,0,4.723.747,8.366-.778l1.133-.582c.731-.374,2.154-1.647,2.007-2.386l-1.66-8.293S253.323,128.085,247.351,127.446Z" transform="translate(-18.733 -9.363)" fill="none" stroke="#000" stroke-miterlimit="10" stroke-width="0.968"/>
        <path id="Path_1884" data-name="Path 1884" d="M233.049,90.548c-.655,3.914-3.456,12.463,1.322,25.677a15.167,15.167,0,0,0,8.44,8.416c5.248,2.05,12.142.026,16.445-4.384" transform="translate(-17.543 -6.858)" fill="#fff"/>
        <path id="Path_1885" data-name="Path 1885" d="M233.049,90.548c-.655,3.914-3.456,12.463,1.322,25.677a15.167,15.167,0,0,0,8.44,8.416c5.248,2.05,12.142.026,16.445-4.384" transform="translate(-17.543 -6.858)" fill="none" stroke="#000" stroke-miterlimit="10" stroke-width="0.843"/>
        <path id="Path_1886" data-name="Path 1886" d="M250.754,105.035a1.071,1.071,0,1,1-.96-1.171,1.071,1.071,0,0,1,.96,1.171" transform="translate(-18.829 -7.866)"/>
        <path id="Path_1887" data-name="Path 1887" d="M242.858,112.471c.006.011.018.019,0,.032s0,.011.006.015a.177.177,0,0,0,.083.027c.025,0,.044.006.069.007,0,.006,0,.011-.007.013s-.045.013-.053.03a.117.117,0,0,1-.026.007l-.091.007a.121.121,0,0,0-.054.006c.038.009.079,0,.112.008s0,.019,0,.029-.013.021-.021.031l-.01.006-.081.014h-.047c-.022,0-.048,0-.058.015a.439.439,0,0,1-.128.019,2.662,2.662,0,0,1-.391-.026l-.129-.019-.1-.019-.023,0a1.149,1.149,0,0,1-.257-.059,1.728,1.728,0,0,1-.522-.268,1.828,1.828,0,0,1-.214-.183,1.267,1.267,0,0,1-.206-.276,1.218,1.218,0,0,1-.145-.413,1.456,1.456,0,0,1-.018-.189,1.219,1.219,0,0,1,.007-.144,2.265,2.265,0,0,1,.082-.411c.055-.191.121-.369.185-.547.03-.083.062-.17.092-.254.006-.017,0-.013.02-.058.018-.067.044-.131.068-.2l.161-.425c.017-.041.029-.069.058-.143l.124-.3.006-.014c.051-.16.122-.311.188-.465l.063-.141.018-.042c.077-.182.1-.231.137-.328.009-.02.008-.019.029-.063.044-.117.1-.231.154-.345l.068-.154c.037-.083.04-.09.059-.135.063-.137.132-.29.182-.4l.093-.187c.048-.1.1-.189.158-.281.019-.031.046-.075.063-.105a1.865,1.865,0,0,1,.116-.157c.009-.01.019-.023.028-.013l.008,0a.054.054,0,0,1,.036-.023c.007-.006.02-.007.022,0s.007.008.014.009.014.013,0,.032a.138.138,0,0,1-.017.026.237.237,0,0,0-.043.094c-.015.055-.029.109-.042.155s-.035.111-.049.156c-.041.112-.072.2-.1.276l-.156.388c-.047.112-.059.142-.089.211-.011.028-.027.064-.035.084l-.128.3-.018.034c-.012.028-.021.051-.036.084a.51.51,0,0,0-.019.05c-.05.118-.077.179-.111.26l-.041.106c-.044.116-.075.192-.133.342l-.2.512c-.042.1-.071.181-.107.27-.039.106-.083.225-.125.337-.01.027-.017.048-.029.079l-.146.424a1.52,1.52,0,0,1-.057.157l-.009.022c-.06.177-.125.348-.167.518a1.23,1.23,0,0,0-.014.676,1.262,1.262,0,0,0,.114.237l0,.006c.062.078.065.079.091.112a1.26,1.26,0,0,0,.215.186,1.635,1.635,0,0,0,.258.145l.13.05a2.455,2.455,0,0,0,.61.112l.088.009a.562.562,0,0,0,.1.006,1.882,1.882,0,0,1,.192.018.191.191,0,0,1,.067.018l.056.02" transform="translate(-18.219 -8.023)"/>
        <path id="Path_1888" data-name="Path 1888" d="M237.748,105.4a1.071,1.071,0,1,1-.96-1.171,1.069,1.069,0,0,1,.96,1.171" transform="translate(-17.844 -7.893)"/>
        <path id="Path_1889" data-name="Path 1889" d="M243.85,119.4a7.4,7.4,0,0,0,7.512-2.548c.2-.242-.4-.919-.551-.732a7.187,7.187,0,0,1-4.786,2.665,6.668,6.668,0,0,1-2.487-.139c-.2-.057-.166.185-.124.3a.785.785,0,0,0,.435.457" transform="translate(-18.432 -8.792)" fill="#1c1a68"/>
        <path id="Path_1890" data-name="Path 1890" d="M233.126,101.1a6.374,6.374,0,0,1,4.949-1.5" transform="translate(-17.656 -7.539)" fill="none" stroke="#000" stroke-miterlimit="10" stroke-width="0.5"/>
        <path id="Path_1891" data-name="Path 1891" d="M247.633,98.87a6.377,6.377,0,0,1,5.051,1.1" transform="translate(-18.754 -7.478)" fill="none" stroke="#000" stroke-miterlimit="10" stroke-width="0.5"/>
        <path id="Path_1892" data-name="Path 1892" d="M267.9,164.514s1,10.22-.066,15.192a2.261,2.261,0,0,1-.431,1.037,2.284,2.284,0,0,1-.945.561c-1.849.693-3.826.97-5.722,1.521a20.6,20.6,0,0,0-7.751,4.231" transform="translate(-19.16 -12.459)" fill="none" stroke="#000" stroke-miterlimit="10" stroke-width="1.024"/>
        <path id="Path_1893" data-name="Path 1893" d="M247.642,139.249s-1.067,4.135.606,3.985,4.406-1.74,6.256-3.985a45.728,45.728,0,0,1,4.757-4.714,14.254,14.254,0,0,1-10.338,1.949Z" transform="translate(-18.73 -10.189)" fill="#bdbcec"/>
        <path id="Path_1894" data-name="Path 1894" d="M316.561,201.533H14.152a4.192,4.192,0,0,1-4.192-4.192V182.708a4.192,4.192,0,0,1,4.192-4.192H316.561a4.191,4.191,0,0,1,4.192,4.192v14.633a4.191,4.191,0,0,1-4.192,4.192" transform="translate(-0.754 -13.52)" fill="#fff"/>
        <path id="Path_1895" data-name="Path 1895" d="M83.1,120.942l10.466,5.89a2.938,2.938,0,0,0,1.782.543,2.835,2.835,0,0,0,1.6-1.115c4.21-4.821,8.167-13.684,9.508-19.942A109.7,109.7,0,0,1,82.1,83.524s-5.668-6.882-14.666-6.787S46,75.518,38.932,81.291C31.8,87.117,26.174,97.03,24.143,106.065" transform="translate(-1.828 -5.807)" fill="none" stroke="#000" stroke-miterlimit="10" stroke-width="1.027"/>
        <ellipse id="Ellipse_1216" data-name="Ellipse 1216" cx="2.128" cy="2.128" rx="2.128" ry="2.128" transform="translate(35.949 4.883)" fill="none" stroke="#000" stroke-miterlimit="10" stroke-width="0.978"/>
        <path id="Path_1896" data-name="Path 1896" d="M95.754,20.775,77.519,15.931l-.177.1a1.23,1.23,0,0,0-.214-.58,46.075,46.075,0,0,0-5.508-6.727c-9.358-9.2-26.5-3.68-26.5-3.68s-8.5,3-11.87,9.042c-3.614,6.473.307,16.356.307,16.356l20.976-4.3c3.856-.952,6.979-1.833,9.547-2.654l0,0,10.087,3.57,5.059,1.179c9.763,2.278,14.848-.765,17-3.438s-.475-4.026-.475-4.026" transform="translate(-2.403 -0.258)" fill="#dec7fa"/>
        <path id="Path_1897" data-name="Path 1897" d="M51.312,67.709c.229-.259,1.549,2.877,1.875,2.761,3.653-1.3,7.883-2.787,11.431-1.473,4.2,1.551,3.037,9.014,3.338,13.317a4.576,4.576,0,0,1-.516,3.091,3.932,3.932,0,0,1-2.587,1.275A13.936,13.936,0,0,1,53.691,83.64a6.825,6.825,0,0,1-1.506-1.672" transform="translate(-3.886 -5.127)" fill="#fff"/>
        <path id="Path_1898" data-name="Path 1898" d="M51.312,67.709c.229-.259,1.549,2.877,1.875,2.761,3.653-1.3,7.883-2.787,11.431-1.473,4.2,1.551,3.037,9.014,3.338,13.317a4.576,4.576,0,0,1-.516,3.091,3.932,3.932,0,0,1-2.587,1.275A13.936,13.936,0,0,1,53.691,83.64a6.825,6.825,0,0,1-1.506-1.672" transform="translate(-3.886 -5.127)" fill="none" stroke="#231f20" stroke-miterlimit="10" stroke-width="0.9"/>
        <path id="Path_1899" data-name="Path 1899" d="M42.558,59.529c.917,4.747,6.6,9.195,12.207,11.6,7.067,3.033,16.2,3.048,21.529-2.5,2.748-2.859,4.131-5.958,4.928-10.654,1.4-8.27-2.082-17.811-2.477-26.191,0,0-43.489-10.077-36.187,27.74" transform="translate(-3.161 -2.315)" fill="#fff"/>
        <path id="Path_1900" data-name="Path 1900" d="M42.626,60.4A26.526,26.526,0,0,0,54.833,72c7.067,3.033,16.2,3.048,21.529-2.5,2.748-2.86,4.131-5.958,4.928-10.654,1.4-8.269-2.082-17.811-2.477-26.191" transform="translate(-3.228 -2.473)" fill="#fff"/>
        <path id="Path_1901" data-name="Path 1901" d="M42.626,60.4A26.526,26.526,0,0,0,54.833,72c7.067,3.033,16.2,3.048,21.529-2.5,2.748-2.86,4.131-5.958,4.928-10.654,1.4-8.269-2.082-17.811-2.477-26.191" transform="translate(-3.228 -2.473)" fill="none" stroke="#000" stroke-miterlimit="10" stroke-width="1.027"/>
        <path id="Path_1902" data-name="Path 1902" d="M71.193,62.669a8.575,8.575,0,0,1-6.948,1.388c-.733-.177-1.61-.42-2.126.2a1.192,1.192,0,0,0-.132,1.229,2.361,2.361,0,0,0,1.43,1.33,5.571,5.571,0,0,0,3.287.446s1.477-.189,1.685-.88" transform="translate(-4.686 -4.746)" fill="none" stroke="#000" stroke-miterlimit="10" stroke-width="1.027"/>
        <path id="Path_1903" data-name="Path 1903" d="M77.033,49.377a1.383,1.383,0,1,1-1.384-1.384,1.383,1.383,0,0,1,1.384,1.384" transform="translate(-5.625 -3.635)"/>
        <path id="Path_1904" data-name="Path 1904" d="M59.85,52.006a1.383,1.383,0,1,1-1.383-1.384,1.383,1.383,0,0,1,1.383,1.384" transform="translate(-4.323 -3.834)"/>
        <path id="Path_1905" data-name="Path 1905" d="M67.607,48.566a41.408,41.408,0,0,1,2.521,5.8,2.519,2.519,0,0,1,.194,1.389,1.758,1.758,0,0,1-1.2,1.165,5.174,5.174,0,0,1-1.735.159" transform="translate(-5.103 -3.678)" fill="none" stroke="#000" stroke-miterlimit="10" stroke-width="0.718"/>
        <path id="Path_1906" data-name="Path 1906" d="M58.123,44.538s-3.37-1.107-4.992,1.564" transform="translate(-4.024 -3.356)" fill="none" stroke="#000" stroke-miterlimit="10" stroke-width="1.186"/>
        <path id="Path_1907" data-name="Path 1907" d="M71.712,41.486a6.38,6.38,0,0,1,5.129-.668" transform="translate(-5.431 -3.071)" fill="none" stroke="#000" stroke-miterlimit="10" stroke-width="1.027"/>
        <path id="Path_1908" data-name="Path 1908" d="M30.71,32.325S26.79,22.442,30.4,15.969c3.37-6.037,11.871-9.042,11.871-9.042s17.138-5.522,26.5,3.68a46.126,46.126,0,0,1,5.508,6.727c.555.833,0,1.608-.879,2.273-2.814,2.134-7.377,4.7-21.853,6.914" transform="translate(-2.187 -0.4)" fill="none" stroke="#000" stroke-miterlimit="10" stroke-width="0.978"/>
        <path id="Path_1909" data-name="Path 1909" d="M77.911,18.842l18.236,4.843s2.628,1.354.474,4.027-7.238,5.716-17,3.438L71.7,29.3" transform="translate(-5.43 -1.427)" fill="none" stroke="#000" stroke-miterlimit="10" stroke-width="1.137"/>
        <path id="Path_1910" data-name="Path 1910" d="M49.267,34.4a13.328,13.328,0,0,1-5.924,7.521c-4.691,2.7-2.811,9.134-2.811,9.134a1.59,1.59,0,0,0-2.13,1.3c-.466,1.7.243,3.914,1.758,4.382a11.2,11.2,0,0,0,1.511.353" transform="translate(-2.898 -2.605)" fill="#fff"/>
        <path id="Path_1911" data-name="Path 1911" d="M49.267,34.4a13.328,13.328,0,0,1-5.924,7.521c-4.691,2.7-2.811,9.134-2.811,9.134a1.59,1.59,0,0,0-2.13,1.3c-.466,1.7.243,3.914,1.758,4.382a11.2,11.2,0,0,0,1.511.353" transform="translate(-2.898 -2.605)" fill="none" stroke="#000" stroke-miterlimit="10" stroke-width="1.027"/>
        <path id="Path_1912" data-name="Path 1912" d="M35.534,56.955s-4.321-2.568-5.07-6.329,1.691-9.206,1.128-11.083" transform="translate(-2.296 -2.995)" fill="#fff"/>
        <path id="Path_1913" data-name="Path 1913" d="M35.534,56.955s-4.321-2.568-5.07-6.329,1.691-9.206,1.128-11.083" transform="translate(-2.296 -2.995)" fill="none" stroke="#000" stroke-miterlimit="10" stroke-width="1.027"/>
        <path id="Path_1914" data-name="Path 1914" d="M65.958,23.826s-4.11-5.675-8.342-10.833S48.922,7.41,43.372,7.062" transform="translate(-3.285 -0.535)" fill="none" stroke="#000" stroke-miterlimit="10" stroke-width="1"/>
        <path id="Path_1915" data-name="Path 1915" d="M39.146,8.54S35.406,23.1,40.214,28.762" transform="translate(-2.86 -0.647)" fill="none" stroke="#000" stroke-miterlimit="10" stroke-width="1"/>
        <path id="Path_1916" data-name="Path 1916" d="M209.56,101.093a15.542,15.542,0,0,0,2.844-.341s.7,4.529-1.708,4.644a14.235,14.235,0,0,0-1.136-4.3" transform="translate(-15.871 -7.63)" fill="#bdbcec"/>
        <path id="Path_1917" data-name="Path 1917" d="M248.389,86.755a.874.874,0,0,1,.546-.993c.7-.249,2.383-.074,4.542,1.812s5.6,3.208,5.071,4.334c0,0-6.287-1.8-10.159-5.154" transform="translate(-18.811 -6.488)" fill="#bdbcec"/>
        <path id="Path_1918" data-name="Path 1918" d="M207.868,48.3s6.2-3.963,15.4.667,8.809,17.717,8.809,17.717" transform="translate(-15.743 -3.538)" fill="none" stroke="#000" stroke-miterlimit="10" stroke-width="0.8"/>
        <path id="Path_1919" data-name="Path 1919" d="M227.072,89.571s-3.978-4.181-1.039-8.995a8.943,8.943,0,0,1,4.219-3.516c1.657-.7,4.141-2.65,7.724-4.459,5.8-2.928,15.9-.947,15.9-.947a25.47,25.47,0,0,1,12.536,5.558c4.714,4.01,5.6,12.358,5.975,15.228s.434,3.836,3.217,8.791c2.517,4.484,1.521,9.849-.836,13.73-.622,1.022-1.86,4.041.517,9.41,2.877,6.5-.028,8.8-3.307,13.525" transform="translate(-17.037 -5.377)" fill="none" stroke="#000" stroke-miterlimit="10" stroke-width="0.843"/>
        <path id="Path_1920" data-name="Path 1920" d="M263.726,98.4s.175-5.382-5.873-6.42a19.663,19.663,0,0,1-10.079-5.4c-5.842,3.286-8.58,1.979-8.58,1.979" transform="translate(-18.115 -6.557)" fill="#fff"/>
        <path id="Path_1921" data-name="Path 1921" d="M263.726,98.4s.175-5.382-5.873-6.42a19.663,19.663,0,0,1-10.079-5.4c-5.842,3.286-8.58,1.979-8.58,1.979" transform="translate(-18.115 -6.557)" fill="none" stroke="#000" stroke-miterlimit="10" stroke-width="0.843"/>
        <path id="Path_1922" data-name="Path 1922" d="M245.66,175.094c-1-36.154,3.173-38.7,3.173-38.7s7.633,1.654,11.472-3.064c0,0,5.533,13.9,2.278,41.761" transform="translate(-18.593 -10.098)" fill="none" stroke="#000" stroke-miterlimit="10" stroke-width="0.932"/>
      </g>
    </g>
    <rect id="Rectangle_2611" data-name="Rectangle 2611" width="320" height="188.014" transform="translate(192 1311)" fill="none"/>
  </g>
</svg>
