<svg xmlns="http://www.w3.org/2000/svg" width="302.926" height="49" viewBox="0 0 302.926 49">
  <g id="Group_1191" data-name="Group 1191" transform="translate(-207 -28)">
    <text id="Winner_of_the_United_Nations_Innovation_Award" data-name="Winner of the United Nations’ Innovation Award" transform="translate(332.926 38)" fill="#898989" font-size="12" font-family="SegoeUI, Segoe UI" letter-spacing="0.025em"><tspan x="0" y="13">Winner of the United Nations’ </tspan><tspan x="0" y="29">Innovation Award</tspan></text>
    <g id="Group_772" data-name="Group 772" transform="translate(287.387 41.287)">
      <path id="Path_569" data-name="Path 569" d="M-120.575,3314.009c.215.022.43.042.644.066a9.78,9.78,0,0,1,3.744,1.186,10.091,10.091,0,0,1,5.229,7.193,9.663,9.663,0,0,1-1.992,8.084,9.6,9.6,0,0,1-5.307,3.409,9.812,9.812,0,0,1-3.328.271,10.105,10.105,0,0,1-5.286-2.028,10.205,10.205,0,0,1-3.831-5.741,9.956,9.956,0,0,1,2.8-9.748,9.669,9.669,0,0,1,4.908-2.5c.443-.085.9-.117,1.346-.173.035,0,.069-.013.1-.019Zm-1.484,9.843,0,0c-.047-.034-.1-.1-.14-.094a2.428,2.428,0,0,0-.358.083l.086-.147c-.014-.035-.033-.083-.053-.129a.141.141,0,0,0-.18-.089c-.106.023-.284.266-.255.37.006.022.056.042.088.048.083.013.167.017.25.024l.023.037-.242.252.071.08c-.181.064-.2.179-.155.344a2.1,2.1,0,0,0,2.467,1.535c.078-.018.107-.052.109-.125,0-.148.007-.3.013-.446a.813.813,0,0,1,.023-.139c.013-.06.03-.12.047-.187l.3.045a1.5,1.5,0,0,1,.288.044.207.207,0,0,1,.1.142c0,.022-.078.063-.122.092-.012.008-.03.006-.06.012l.2.118.1-.093c-.024-.077-.04-.134-.059-.189a.265.265,0,0,0-.049-.113,2.235,2.235,0,0,0-.216-.155c.089-.079.17.139.256-.008a1.831,1.831,0,0,1,.164-.207l.25-.063-.006-.034a.738.738,0,0,1-.523-.187l.209-.091c-.118-.02-.044-.085-.014-.15-.119.047-.224.073-.3-.05-.009-.014-.042-.014-.065-.019-.076-.018-.172-.013-.224-.058-.109-.093-.218-.059-.332-.042,0,0-.009-.007,0,0,.134-.159.275-.312.519-.275v-.282l-.1.019c-.078-.182.144-.214.171-.359l-.086.029-.08-.112-.157.114c-.137-.088-.1-.228-.12-.347-.1-.009-.158-.038-.144-.147,0-.025-.038-.066-.068-.084a1.647,1.647,0,0,0-.183-.086l-.019.094c-.108-.008-.219-.032-.242-.137-.035-.16-.117-.333.018-.494l-.073-.149a2.085,2.085,0,0,0-1.107.346,2.479,2.479,0,0,0,.3.168.237.237,0,0,0,.183-.011,1.932,1.932,0,0,0,.235-.2c.086-.073.174-.144.26-.216l.021.027-.17.153c.042.038.1.069.093.086a2.207,2.207,0,0,1-.091.25c.047.061.046.065-.081.131a.331.331,0,0,1-.227.3.671.671,0,0,0-.221.068,2.232,2.232,0,0,0-.25.231c.027.033.09.076.093.123s-.062.1-.107.113-.1-.027-.156-.045c-.026.1,0,.128.1.109.018,0,.065.041.061.055A.429.429,0,0,1-122.058,3323.852Zm-4.59-5.506a8.231,8.231,0,0,1,5.6-2.374v-1.6a9.657,9.657,0,0,0-6.794,2.783Zm11.579,11.5,1.188,1.194a9.536,9.536,0,0,0,2.286-3.79,9.389,9.389,0,0,0,.456-2.923h-1.594A8.215,8.215,0,0,1-115.07,3329.849Zm-15.182-5.86c.012-.06.021-.11.032-.159.023-.1.061-.183.189-.191a.238.238,0,0,0,.132-.086c.167-.179.181-.177.265.051l.1-.044.122.413c.074-.175.138.022.213-.024-.026-.1-.163-.172-.052-.3l.211.136a8.187,8.187,0,0,1,.627-2.8,8.084,8.084,0,0,1,1.537-2.394l-1.2-1.193a9.558,9.558,0,0,0-2.183,3.834,9.346,9.346,0,0,0-.388,2.756Zm9.2,8.3a8.216,8.216,0,0,1-5.548-2.327l-1.067,1.072a10,10,0,0,0,6.615,2.85Zm9.915-8.283a10.026,10.026,0,0,0-2.8-6.605l-1.069,1.072a8.226,8.226,0,0,1,2.278,5.533Zm-4.178,6.078c-.132.113-.259.238-.4.341a1.071,1.071,0,0,0-.332.419,1.356,1.356,0,0,1-.518.585c-.279.168-.566.326-.853.481a.913.913,0,0,1-.257.082.175.175,0,0,1-.127-.035.482.482,0,0,0-.467-.1,8.335,8.335,0,0,1-2.043.411l-.417.027v1.6a9.665,9.665,0,0,0,6.6-2.606Zm1.126-12.931a9.992,9.992,0,0,0-6.543-2.779v1.586a1.652,1.652,0,0,0,.838-.07.517.517,0,0,1,.161-.033.542.542,0,0,1,.387.12c-.073.021-.121.037-.17.047s-.092.016-.138.023a8.349,8.349,0,0,1,4.4,2.183Zm-16.458,7.146a10.029,10.029,0,0,0,2.729,6.478l1.066-1.074c-.113-.132-.24-.272-.358-.419a8.178,8.178,0,0,1-1.595-3.182.318.318,0,0,0-.057-.092c-.036-.05-.091-.095-.106-.15a3.329,3.329,0,0,1-.058-.353l-.045,0-.035.285-.415-.726-.046.357-.042.009-.34-.69-.138.1-.026-.023a3.166,3.166,0,0,0-.106.36,3.369,3.369,0,0,0-.027.382,2.144,2.144,0,0,1-.056-1.265Zm4.25-5.71,1.071,1.073a6.354,6.354,0,0,1,4.272-1.825v-1.516A7.882,7.882,0,0,0-126.4,3318.594Zm5.342,13.332v-1.5a.349.349,0,0,0-.043-.006,6.309,6.309,0,0,1-3.685-1.346.247.247,0,0,0-.057-.041c-.175-.067-.352-.128-.525-.2a.141.141,0,0,0-.185.041c-.11.118-.228.229-.342.343l-.474.474A7.741,7.741,0,0,0-121.056,3331.926Zm-7.63-7.937c.042,0,.076.006.111.006.327,0,.654,0,.981.005.1,0,.146-.029.164-.129a.564.564,0,0,1,.234-.418.219.219,0,0,0,.068-.142,6.285,6.285,0,0,1,1.291-3.062c.091-.117.188-.23.277-.338l-1.065-1.063A7.826,7.826,0,0,0-128.686,3323.988Zm14.241,4.539a7.837,7.837,0,0,0,1.35-4.192h-1.513c0,.035-.006.059-.008.082a6.243,6.243,0,0,1-.953,3.053,1.391,1.391,0,0,0-.185.439c-.057.252-.148.5-.216.747a2.328,2.328,0,0,0-.041.3c.128,0,.224,0,.32,0s.242.19.184.28c-.082.13-.032.2.066.283a.558.558,0,0,1,.084.118l.446-.492c-.014-.084-.022-.143-.034-.2-.007-.031-.014-.076-.035-.086-.121-.058-.1-.14-.042-.222a.869.869,0,0,0,.142-.5c0-.1.035-.17.143-.181s.087.057.1.136A2.52,2.52,0,0,0-114.444,3328.527Zm1.368-4.514c-.034-.349-.053-.682-.1-1.012a7.682,7.682,0,0,0-1.134-3.051.828.828,0,0,0-.149-.133c-.027.112-.05.19-.065.269a.147.147,0,0,1-.244.1c-.108-.091-.2-.2-.31-.29a2.322,2.322,0,0,0-.311-.25c-.171-.1-.354-.188-.519-.274l-.427.429a6.344,6.344,0,0,1,1.733,4.218Zm-10.963-3.066a4.521,4.521,0,0,1,2.984-1.29v-1.449a5.974,5.974,0,0,0-4.008,1.715Zm6.351-3.889v-.039a7.76,7.76,0,0,0-2.752-.676l.058.117-.351-.135v1.518a6.341,6.341,0,0,1,4.148,1.7l.384-.385c-.231-.1-.384-.325-.631-.47l.183-.048a2.367,2.367,0,0,0-.336-.305c-.049-.031-.152.027-.23.044a.165.165,0,0,0-.034.01.079.079,0,0,1-.123-.064c-.032-.156-.223-.227-.216-.405,0-.013-.026-.027-.04-.042-.161-.161-.325-.319-.48-.485-.042-.045-.092-.131-.075-.168s.1-.083.168-.1C-117.91,3317.095-117.8,3317.08-117.689,3317.058Zm.293,2.279a5.985,5.985,0,0,0-3.338-1.135v1.457a4.515,4.515,0,0,1,2.865,1.172l.9-.906c-.011-.006-.036-.032-.059-.031-.127.005-.185-.1-.265-.163C-117.494,3319.575-117.491,3319.572-117.4,3319.337Zm-7.906.825a5.958,5.958,0,0,0-1.4,2.77c.154-.067.143.063.18.135l.085-.106a.515.515,0,0,1,.084.111,2.664,2.664,0,0,1,.106.359c.018.092.051.122.143.094a.557.557,0,0,1,.138-.008l.125,0c0-.05-.006-.1-.009-.15s-.023-.1,0-.129a.954.954,0,0,1,.421-.471c.066-.029.11-.111.159-.173s.063-.126.114-.162a1.353,1.353,0,0,0,.378-.5,4.722,4.722,0,0,1,.273-.427c.075-.108.161-.209.235-.3Zm2.752,5.759-1.209,1.213a4.18,4.18,0,0,0,2.121,1.083c.085.016.119-.023.124-.1.008-.112.072-.136.17-.12s.191.03.306.047l-.031-.332-.023.007.056-.163-.155-.013.13-.076-.1-.047a.376.376,0,0,1,.039-.054c.071-.068.1-.117.015-.217-.11-.127-.092-.142.04-.263a.075.075,0,0,0,.02-.05c0-.089,0-.18,0-.273A2.465,2.465,0,0,1-122.55,3325.921Zm-2.483,2.462a5.763,5.763,0,0,0,2.547,1.451.845.845,0,0,0-.15-.177c-.146-.123-.152-.168-.015-.3a.218.218,0,0,0,.084-.217.121.121,0,0,1,.057-.1,1.587,1.587,0,0,1,.6-.171c.044,0,.114-.008.129-.037.066-.12.182-.141.294-.176a.565.565,0,0,0,.1-.05,4.683,4.683,0,0,1-2.612-1.252Zm1.029-1.5,1.215-1.217a2.8,2.8,0,0,1-.563-1.335l-.012.052-.183.084c-.113-.156-.113-.156-.312-.156l-1.051,0c-.041,0-.082,0-.13.007A4.192,4.192,0,0,0-124,3326.88Zm.17-5.68a.748.748,0,0,0,.193.14,1.607,1.607,0,0,0,.3.027.2.2,0,0,1,.054.017c.038.017.077.034.114.053a.816.816,0,0,0,.475.11s.008,0,.011,0a.535.535,0,0,1,.32.435,1.232,1.232,0,0,0,.043.178,2.545,2.545,0,0,1,1.274-.466v-1.713A4.2,4.2,0,0,0-123.833,3321.2Zm4.856.794-.034-.034c-.007-.049-.039-.123-.018-.145.1-.1.162-.247.339-.244a.275.275,0,0,0,.159-.059,2.289,2.289,0,0,0,.227-.224.091.091,0,0,0,.025-.075.086.086,0,0,0-.067-.044,1,1,0,0,0-.16.027l-.12.027c0-.1.1-.244.2-.238a1.464,1.464,0,0,1,.312.085,4.076,4.076,0,0,0-2.625-1.086v1.7c.168.033.332.071.5.095.023,0,.064-.057.082-.094s-.012-.085.005-.1c.125-.1.257-.2.4-.311a.431.431,0,0,1-.311.562,1.145,1.145,0,0,0,.147.063,1.046,1.046,0,0,1,.193.04c.1.047.179.121.275.167a.3.3,0,0,0,.2.032A1.445,1.445,0,0,0-118.977,3321.994Zm-6.275,6.129,1.014-1.017a4.522,4.522,0,0,1-1.129-2.795h-.471a.272.272,0,0,1,.043.315.5.5,0,0,0-.017.219,3.047,3.047,0,0,1,.033.771,1.411,1.411,0,0,0,.12.918.386.386,0,0,1-.014.4,1.179,1.179,0,0,1-.092.113c.016.067.1.136.109.266a1.083,1.083,0,0,0,.173.39C-125.411,3327.84-125.332,3327.978-125.252,3328.124Zm7.661-7.021c.112.145.259.324.392.514a.487.487,0,0,0,.232.176,1.482,1.482,0,0,1,.345.231c.056.045.082.125.134.178a.633.633,0,0,0,.14.078c.043.025.084.055.126.083l-.019.032-.129.024a1.637,1.637,0,0,0,.119.163c.056.058.105.051.123-.035a.813.813,0,0,1,.027-.174c.02-.044.072-.1.11-.1.109,0,.281.26.266.371a1.34,1.34,0,0,0-.019.292c0,.046.057.087.088.131.035-.036.09-.066.1-.108a1.3,1.3,0,0,0,.022-.233c.013-.143.082-.18.2-.106a.805.805,0,0,0-.022-.614c-.075-.151-.132-.312-.206-.463-.081-.167-.173-.33-.264-.5-.134.161-.224.162-.345.018-.074-.088-.144-.18-.216-.271l.03-.027.258.29.021-.018-.155-.192.136.035c.009-.072.046-.155.019-.192-.164-.224-.343-.436-.493-.623Zm.5,5.846a.293.293,0,0,0,.424-.156c.027-.116.038-.229.17-.285.051-.021.086-.081.135-.129a.361.361,0,0,1,.036.061c.007.022.006.047.012.069a1.177,1.177,0,0,1-.091.69,3.936,3.936,0,0,1-.209.487c-.035.073-.1.141-.189.1a.419.419,0,0,0-.327.018c0,.011,0,.021.007.025.052.054.1.107.157.16.131.131.129.128.292.035a.552.552,0,0,1,.253-.112.159.159,0,0,0,.162-.074c.11-.176.213-.356.32-.534a1.108,1.108,0,0,1,.1-.144c.032-.039.087-.061.111-.1a5.871,5.871,0,0,0,.711-2.063c.032-.217.045-.436.067-.66h-.859c.053.136.1.261.152.381a.16.16,0,0,0,.1.086c.138.013.17.113.2.217s-.06.155-.129.2c-.154.106-.3.228-.475.193-.04.093-.051.188-.1.231a.766.766,0,0,0-.254.309c-.084.213-.115.453-.323.6a.126.126,0,0,0-.033.062.4.4,0,0,1-.253.247A1.4,1.4,0,0,0-117.094,3326.948ZM-118.9,3331a.719.719,0,0,0-.512-.322.94.94,0,0,1-.1-.022c-.137-.036-.148-.059-.1-.187s.016-.167-.121-.15c-.121.014-.241.035-.362.048-.21.021-.421.039-.632.059v1.505a7.184,7.184,0,0,0,2.1-.349c-.1-.044-.211-.072-.314-.106-.175-.058-.2-.149-.1-.3C-119,3331.117-118.95,3331.059-118.9,3331Zm-7.7-1.551.545-.543a1.669,1.669,0,0,1-.226-.167c-.139-.139-.266-.29-.4-.433-.084-.088-.172-.172-.262-.254-.054-.049-.11-.083-.187-.021-.023.018-.093,0-.125-.021-.162-.118-.319-.243-.476-.367-.06-.047-.116-.1-.173-.148A7.133,7.133,0,0,0-126.6,3329.452Zm1.545-5.458h1.127c-.007-.015-.008-.02-.011-.021a.087.087,0,0,0-.031-.017c-.185-.018-.256-.144-.292-.3a.165.165,0,0,0-.008-.022.15.15,0,0,0-.2-.106l-.113.033c-.086.023-.136-.005-.139-.12.072-.021.146-.041.218-.066.039-.013.1-.027.109-.055.1-.242.184-.488.273-.732,0-.01-.006-.024,0-.035.047-.171-.1-.249-.182-.348-.065-.077-.207-.08-.239-.019a1.488,1.488,0,0,0-.186.418,1.018,1.018,0,0,1-.13.386,1.948,1.948,0,0,0-.138.534l.049.013.107-.377a.363.363,0,0,1,.022.223c-.041.125-.11.242-.159.366A2.6,2.6,0,0,0-125.057,3323.994Zm9.72-1.22c-.032.058-.057.1-.081.147a.631.631,0,0,0-.067.136.12.12,0,0,1-.126.108.189.189,0,0,0-.165.282c.014.035.013.11,0,.114-.131.046-.126.182-.189.271a.119.119,0,0,0,.109.19c.244,0,.488,0,.732,0h.182l-.157-1.239-.051,0-.159.6-.029,0Zm-2.6,4.723c-.031.024-.061.047-.091.071a4.346,4.346,0,0,1-1.648.864c-.111.03-.178.077-.184.208.069,0,.134-.008.2-.01l.235-.006c.112,0,.225,0,.337-.014a.111.111,0,0,0,.079-.07c.023-.141.124-.17.24-.2a3.425,3.425,0,0,0,.505-.188c.089-.042.152-.136.236-.191C-117.822,3327.822-117.8,3327.716-117.936,3327.5Zm-2.777.092c.074-.072.154-.15.236-.226a.339.339,0,0,1,.113-.081c.106-.032.1-.085.052-.165s-.036-.162.081-.227a1,1,0,0,1,.014.174c-.007.066.012.128.078.111.1-.025.231.012.312-.1a.154.154,0,0,1,.091-.048.119.119,0,0,0,.1-.175c-.039-.105-.022-.166.1-.18a.238.238,0,0,0-.024-.049c-.1-.109-.1-.113.023-.2a.706.706,0,0,0,.093-.1l-.033-.032c-.046.04-.1.078-.138.122a.128.128,0,0,1-.216-.006c-.015-.017-.028-.035-.045-.057l-.152.07c.031.042.055.072.074.1a.37.37,0,0,1,.063.129.585.585,0,0,1-.009.227.782.782,0,0,1-.113.182.72.72,0,0,1-.1-.1c-.049-.068-.091-.142-.136-.213l-.03.022-.151.113a.96.96,0,0,1-.073-.161c-.045-.18-.044-.182-.234-.148A9.973,9.973,0,0,0-120.714,3327.588Zm-4.554-4.455a.809.809,0,0,1-.156-.036c-.14-.06-.235-.032-.294.11a1.694,1.694,0,0,0-.034.194,1.8,1.8,0,0,1-.092.256.616.616,0,0,0,.085.342l.012,0h.364Zm6.953,3.949c-.082.036-.169.1-.2.085-.114-.067-.133.009-.158.079a.463.463,0,0,0-.028.162.824.824,0,0,0,.033.158c.052-.014.122-.012.154-.045.1-.109.19-.232.284-.351l.044.034Zm-2.34,1.21.909-.161c-.092-.054-.183-.078-.264-.122a.174.174,0,0,0-.185,0,1.6,1.6,0,0,1-.23.066.238.238,0,0,0-.1.045A1.776,1.776,0,0,0-120.654,3328.293Zm4.306-10.495-.015.018a.111.111,0,0,0,.018.025c.071.062.171.108.209.185a1.807,1.807,0,0,0,.54.565l.1-.115c-.266-.216-.522-.424-.779-.631C-116.295,3317.828-116.322,3317.815-116.348,3317.8Zm-1.206,4.152.02-.02.176.092.022-.027-.267-.4c-.17.231-.168.271.016.436l-.07.062.23.124.024-.031Zm-.087-.4c-.043-.05-.078-.116-.132-.146a.225.225,0,0,0-.186-.022,2.027,2.027,0,0,0-.268.236l.019.04c.051.011.1.022.153.03s.113.017.169.025C-117.839,3321.491-117.839,3321.491-117.641,3321.555Zm-.069,6.486.365.048.014-.04a2.542,2.542,0,0,0-.214-.2.207.207,0,0,0-.138-.021c-.013,0-.021.064-.026.1A.915.915,0,0,0-117.71,3328.041Zm-1.576-.113c-.171-.034-.342-.07-.514-.1-.013,0-.042.02-.042.031a.068.068,0,0,0,.026.055A.5.5,0,0,0-119.286,3327.928Zm3.391,2c.143.044.25.023.315-.1l-.169-.184Zm-12.253-5.625c.045.032.06.05.08.056.092.026.184.052.277.072a.158.158,0,0,0,.215-.128Zm11.035-4.743-.042.034a1.084,1.084,0,0,0,.236.315l.091-.1Zm2.072-.565.012-.013-.256-.277-.079.092Zm-8.524,2.446c.116.149.256.119.374.158l.014-.045Zm-.317.163-.149-.186-.082.1Zm5.824,5.292.122.137.072-.171Z" transform="translate(135.163 -3314.009)" fill="#818181"/>
      <path id="Path_570" data-name="Path 570" d="M-193,3492.019l.038-.1a3.087,3.087,0,0,0,.822,1.647c.234.267.477.526.731.772a9.165,9.165,0,0,1,1.441,1.774,5.05,5.05,0,0,0,.333.433l.032-.022c-.026-.05-.049-.1-.08-.151a3.447,3.447,0,0,1-.486-2.39c.069-.5.193-1,.269-1.5.043-.286.039-.579.054-.847,0,.008.023.046.039.084a6.884,6.884,0,0,1,.446,1.89c.093.825.171,1.652.262,2.478a3.708,3.708,0,0,0,.431,1.414c.059.105.1.218.162.341a.194.194,0,0,1-.045-.012c-.682-.446-1.371-.881-2.043-1.342a6.1,6.1,0,0,1-1.662-1.595,4.107,4.107,0,0,1-.725-2.021.428.428,0,0,0-.02-.078Z" transform="translate(193 -3479.772)" fill="#818181"/>
      <path id="Path_571" data-name="Path 571" d="M-193,3433.888c.048-.271.087-.542.145-.81.053-.245.128-.484.2-.741,0,.254-.01.486,0,.718a4.051,4.051,0,0,0,.36,1.362c.223.525.475,1.039.664,1.576.15.428.223.883.334,1.325.04.16.09.317.138.476a.872.872,0,0,0,.045.1l.029-.007a.325.325,0,0,0-.006-.08,3.264,3.264,0,0,1,.14-2.307,7.532,7.532,0,0,1,.743-1.38,3.4,3.4,0,0,0,.449-1.009.262.262,0,0,1,.054-.111.981.981,0,0,1,.014.17c-.04.458-.073.917-.129,1.374a18.086,18.086,0,0,1-.726,2.868,4,4,0,0,0-.1,1.614c0,.036.009.07.013.106,0,.02,0,.039,0,.08-.032-.028-.06-.042-.072-.065a11.8,11.8,0,0,0-1.132-1.5c-.167-.209-.324-.426-.473-.648a4.372,4.372,0,0,1-.568-1.64c-.055-.277-.081-.559-.121-.839Z" transform="translate(193 -3424.431)" fill="#818181"/>
      <path id="Path_572" data-name="Path 572" d="M-101.533,3628.077a11.793,11.793,0,0,1,3.186,2.217l-.591.533c-.053-.063-.1-.122-.147-.175a12.523,12.523,0,0,0-2.284-1.99c-.2-.13-.411-.249-.624-.359a.29.29,0,0,0-.219-.018,4.01,4.01,0,0,0-.611.3,9.493,9.493,0,0,0-2.51,2.258l-.607-.5a11.766,11.766,0,0,1,3.182-2.3c-.112-.021-.223-.049-.336-.06a1.817,1.817,0,0,0-1.152.315c-.237.148-.462.314-.692.473a7.383,7.383,0,0,1-1.586.9,4.01,4.01,0,0,1-4.352-1.042c-.027-.028-.051-.059-.1-.111a.622.622,0,0,1,.069.027,3.679,3.679,0,0,0,2.069.5,4.024,4.024,0,0,0,1.542-.355,17.4,17.4,0,0,1,2.058-.824,5.262,5.262,0,0,1,1.875-.246,3.692,3.692,0,0,1,1.018.185.548.548,0,0,0,.451-.028,1.962,1.962,0,0,1,.572-.128,5.994,5.994,0,0,1,3.371.58,7.033,7.033,0,0,0,1.906.677,3.823,3.823,0,0,0,2.6-.456.09.09,0,0,1,.07-.013,1,1,0,0,1-.062.079,3.981,3.981,0,0,1-3.056,1.326,4.213,4.213,0,0,1-2.022-.583c-.473-.272-.918-.593-1.373-.9a1.973,1.973,0,0,0-.766-.35A2.465,2.465,0,0,0-101.533,3628.077Z" transform="translate(116.452 -3606.659)" fill="#818181"/>
      <path id="Path_573" data-name="Path 573" d="M126.047,3536.956c.113-.119.218-.223.316-.335a4.915,4.915,0,0,0,.9-1.649c.165-.467.321-.937.48-1.407a6.5,6.5,0,0,1,.993-1.761c.138-.187.278-.371.429-.573-.086.29-.185.551-.238.821-.095.482-.176.968-.237,1.456a4.147,4.147,0,0,1-1.353,2.592l-.116.108.024.034a1.928,1.928,0,0,0,.3-.206,7.529,7.529,0,0,1,2-1.3,10.366,10.366,0,0,0,1.59-.9,3.6,3.6,0,0,0,1.119-1.292.065.065,0,0,1,.055-.038c-.032.135-.057.271-.1.4a4.722,4.722,0,0,1-1.193,1.957,5.6,5.6,0,0,1-2.317,1.5c-.4.129-.828.188-1.242.281-.449.1-.9.205-1.345.308A.543.543,0,0,1,126.047,3536.956Z" transform="translate(-104.729 -3516.717)" fill="#818181"/>
      <path id="Path_574" data-name="Path 574" d="M-175.674,3534.234a7.662,7.662,0,0,1,1.621,2.743c.125.414.273.822.433,1.223a4.13,4.13,0,0,0,1.141,1.659c-.139-.037-.255-.075-.374-.1-.587-.111-1.174-.229-1.764-.325a4.867,4.867,0,0,1-2.349-1.113,5.385,5.385,0,0,1-1.638-2.146,4.362,4.362,0,0,1-.2-.7c.123.191.236.389.371.57a3.826,3.826,0,0,0,1.312,1.079c.528.28,1.067.539,1.6.808a6.454,6.454,0,0,1,1.227.813c.188.157.4.28.607.418l.028-.037c-.043-.041-.084-.083-.13-.121a3.989,3.989,0,0,1-1.406-2.657,9.34,9.34,0,0,0-.348-1.77C-175.583,3534.467-175.631,3534.352-175.674,3534.234Z" transform="translate(179.754 -3519.519)" fill="#818181"/>
      <path id="Path_575" data-name="Path 575" d="M171.279,3488.534a3.825,3.825,0,0,1,.006,1.077,5.018,5.018,0,0,1-1.746,3.086,11.838,11.838,0,0,1-1.442,1.025c-.4.266-.792.543-1.187.816-.018.012-.038.021-.087.048a1.22,1.22,0,0,1,.05-.119,4.7,4.7,0,0,0,.564-1.826c.081-.7.132-1.412.193-2.117a7.092,7.092,0,0,1,.5-2.187c.007-.018.016-.034.034-.071a4.206,4.206,0,0,0,0,.544c.068.494.143.988.233,1.479a3.862,3.862,0,0,1-.087,2.107c-.1.256-.233.5-.352.745-.015.031-.034.061-.05.092,0,0,0,.014.015.041.035-.041.066-.072.091-.107.337-.47.652-.959,1.016-1.407.329-.405.714-.765,1.071-1.147a4.442,4.442,0,0,0,1.009-1.511C171.179,3488.928,171.219,3488.745,171.279,3488.534Z" transform="translate(-142.781 -3476.624)" fill="#818181"/>
      <path id="Path_576" data-name="Path 576" d="M75.463,3577.036c-.309.615-.612,1.246-.94,1.862a2.528,2.528,0,0,1-1.575,1.251c-.145.044-.288.093-.432.139l.01.044c.235-.039.468-.083.7-.113.624-.082,1.248-.169,1.874-.232a8.893,8.893,0,0,0,2.044-.343,3.048,3.048,0,0,0,1.347-.9c-.017.052-.022.074-.031.1s-.022.042-.034.062a4.256,4.256,0,0,1-1.52,1.537,4.358,4.358,0,0,1-3.241.6c-.722-.138-1.437-.312-2.156-.466-.271-.058-.544-.1-.844-.157l.383-.1a4.036,4.036,0,0,0,2.017-1.117c.341-.36.7-.71,1.063-1.042.414-.375.851-.725,1.278-1.085A.325.325,0,0,1,75.463,3577.036Z" transform="translate(-53.053 -3559.462)" fill="#818181"/>
      <path id="Path_577" data-name="Path 577" d="M-143.464,3578.569c.247.192.507.371.739.58.564.509,1.127,1.021,1.67,1.553a4.23,4.23,0,0,0,1.941,1.068,4.333,4.333,0,0,1,.468.138c-.069.012-.138.03-.208.036a8.974,8.974,0,0,0-1.471.332,8.531,8.531,0,0,1-2.279.357,4.452,4.452,0,0,1-3.782-2.116c-.028-.042-.051-.088-.094-.164.148.129.265.24.391.339a3.33,3.33,0,0,0,1.63.67c.631.086,1.267.138,1.9.184a12.724,12.724,0,0,1,1.786.256,2.376,2.376,0,0,0,.3.028l.009-.037a1.97,1.97,0,0,0-.235-.078,2.672,2.672,0,0,1-1.918-1.5q-.376-.716-.755-1.429c-.035-.065-.08-.126-.12-.189Z" transform="translate(149.588 -3560.892)" fill="#818181"/>
      <path id="Path_578" data-name="Path 578" d="M184.511,3436.2c.014-.229.029-.438.04-.646a3.6,3.6,0,0,0-.2-1.392,16.832,16.832,0,0,1-.713-2.7,5.832,5.832,0,0,1-.126-1.325.422.422,0,0,1,.02-.114,5.324,5.324,0,0,0,.608,1.269c.184.3.369.6.545.912a3.129,3.129,0,0,1,.4,2c-.022.171-.07.339-.106.508-.01.048-.021.1-.031.144l.04.014a1.1,1.1,0,0,0,.07-.168c.1-.425.2-.851.3-1.276a8.9,8.9,0,0,1,.6-1.575,5.234,5.234,0,0,0,.49-1.583c.031-.317.006-.641.006-.961l.029-.009c.081.265.182.526.238.8a5.678,5.678,0,0,1-.535,3.861,4.665,4.665,0,0,1-.447.623q-.591.79-1.185,1.576C184.544,3436.167,184.534,3436.177,184.511,3436.2Z" transform="translate(-158.353 -3421.595)" fill="#818181"/>
      <path id="Path_579" data-name="Path 579" d="M170.2,3375.478a6.983,6.983,0,0,0,1.341,1.376c.142.13.282.264.415.4a2.756,2.756,0,0,1,.741,1.574c.013.093.039.185.059.277l.041-.007c-.012-.118-.022-.235-.035-.352a12.064,12.064,0,0,1,0-2.489,5.582,5.582,0,0,0,.035-1.517,2.509,2.509,0,0,0-.311-.909c-.009-.015-.016-.032-.024-.048l.025-.021c.051.057.105.11.152.17a4.842,4.842,0,0,1,1.022,2.228,4.687,4.687,0,0,1-.294,2.649,7.348,7.348,0,0,0-.5,1.765.188.188,0,0,1-.039.093c-.028-.118-.054-.237-.085-.354a4.433,4.433,0,0,0-.726-1.421c-.344-.48-.7-.948-1.04-1.434A5.249,5.249,0,0,1,170.2,3375.478Z" transform="translate(-145.928 -3369.774)" fill="#818181"/>
      <path id="Path_580" data-name="Path 580" d="M-182.183,3376.664a3.356,3.356,0,0,0-.295,2.174c.051.461.13.922.147,1.385.016.439-.031.88-.053,1.321-.006.122-.02.243-.028.365a.472.472,0,0,0,.013.094l.038,0c.023-.133.049-.266.069-.4a2.912,2.912,0,0,1,.794-1.554c.266-.291.551-.563.839-.831a3.6,3.6,0,0,0,.747-.84c0,.039-.005.078-.011.117s-.016.085-.024.127a5.438,5.438,0,0,1-.987,2.188q-.359.491-.7,1a4.534,4.534,0,0,0-.77,1.724c-.065-.27-.112-.547-.2-.81-.141-.429-.308-.85-.464-1.275a4.555,4.555,0,0,1,.624-4.464c.074-.1.151-.2.228-.3A.1.1,0,0,1-182.183,3376.664Z" transform="translate(184.027 -3372.477)" fill="#818181"/>
      <path id="Path_581" data-name="Path 581" d="M151.289,3347.491a4.015,4.015,0,0,0,1.471,1.373,4.735,4.735,0,0,1,1.114.994,4.033,4.033,0,0,1,.275.452c.046.08.087.162.142.266.008-.039.014-.051.011-.058a12.21,12.21,0,0,1-.629-2.037c-.093-.361-.2-.721-.324-1.071a1.943,1.943,0,0,0-.3-.479c-.113-.15-.249-.281-.367-.412a2.362,2.362,0,0,1,.309.111,3,3,0,0,1,1.677,2.285,6.574,6.574,0,0,1,.014,1.427,6.408,6.408,0,0,0,.032,1.378.452.452,0,0,1,0,.065c-.015-.013-.026-.018-.031-.027a4.924,4.924,0,0,0-1.289-1.381c-.418-.34-.841-.676-1.235-1.043a3.021,3.021,0,0,1-.824-1.578c-.018-.076-.033-.154-.049-.231A.175.175,0,0,1,151.289,3347.491Z" transform="translate(-128.284 -3344.347)" fill="#818181"/>
      <path id="Path_582" data-name="Path 582" d="M-162.918,3353.423c.027-.06.053-.12.081-.179a3.713,3.713,0,0,1,1.208-1.4c.36-.26.715-.529,1.058-.811a1.944,1.944,0,0,0,.542-.735.707.707,0,0,1,.041-.066,2.849,2.849,0,0,1-.562,1.563,6.759,6.759,0,0,1-1.523,1.47,4.374,4.374,0,0,0-1.2,1.334c-.008.014-.017.026-.037.056a.456.456,0,0,1-.014-.1,14.346,14.346,0,0,0-.04-1.992,3.62,3.62,0,0,1,.265-1.641,2.839,2.839,0,0,1,1.56-1.5.968.968,0,0,1,.1-.032.15.15,0,0,1,.044.006c-.06.052-.113.1-.165.145a2.361,2.361,0,0,0-.662,1.2c-.128.511-.227,1.029-.361,1.538-.085.322-.21.634-.315.951-.019.058-.029.118-.044.177Z" transform="translate(165.345 -3347.029)" fill="#818181"/>
      <path id="Path_583" data-name="Path 583" d="M133.732,3330.477c-.2-.16-.386-.3-.563-.446a11.121,11.121,0,0,1-2.06-2.3,5.562,5.562,0,0,0-.573-.64c-.1-.106-.21-.2-.318-.3.025-.02.032-.029.035-.028.484.2.982.367,1.448.6a3.386,3.386,0,0,1,1.627,1.889c.1.255.173.522.259.783Z" transform="translate(-108.622 -3325.912)" fill="#818181"/>
      <path id="Path_584" data-name="Path 584" d="M-140.367,3328.813a10.321,10.321,0,0,0-1.386,1.684c-.141.2-.275.4-.429.592a9.163,9.163,0,0,1-1.235,1.131c-.119.1-.237.2-.352.3.13-.432.241-.869.393-1.292a3.235,3.235,0,0,1,1.4-1.708A8.94,8.94,0,0,1-140.367,3328.813Z" transform="translate(147.059 -3327.824)" fill="#818181"/>
      <path id="Path_585" data-name="Path 585" d="M-5.772,3464.78a.308.308,0,0,1-.1.392c-.089.088-.162.194-.249.286-.026.027-.094.059-.112.046a.337.337,0,0,0-.394-.022c-.007,0-.021,0-.032-.005a.432.432,0,0,1,.307-.407.615.615,0,0,0,.346-.252c.048-.057.085-.1.161-.085Z" transform="translate(19.111 -3454.659)" fill="#818181"/>
      <path id="Path_586" data-name="Path 586" d="M-5.7,3460.787a.262.262,0,0,1-.145.212c-.09.062-.173.133-.243.188l-.244-.057.179-.247c.134.112.16.109.238-.034a.372.372,0,0,1-.074-.024.112.112,0,0,1-.053-.077l.345.042Z" transform="translate(18.807 -3450.943)" fill="#818181"/>
      <path id="Path_587" data-name="Path 587" d="M3.351,3460.106l-.074-.049-.106-.168-.055.027.153-.195.03.025-.089.095a.493.493,0,0,1,.108.044c.037.024.086.054.1.091S3.444,3460.1,3.351,3460.106Z" transform="translate(9.988 -3449.985)" fill="#818181"/>
      <path id="Path_588" data-name="Path 588" d="M16.185,3489.85l.055.178-.093.025-.025-.189Z" transform="translate(-2.149 -3478.101)" fill="#818181"/>
      <path id="Path_589" data-name="Path 589" d="M11.8,3510.354c-.052.08-.048.206-.184.2a.99.99,0,0,1-.153-.032.55.55,0,0,1,.063-.169A.178.178,0,0,1,11.8,3510.354Z" transform="translate(2.197 -3497.173)" fill="#818181"/>
      <path id="Path_590" data-name="Path 590" d="M46.25,3424.915a1.128,1.128,0,0,1,.1-.28c.042-.06.13-.088.21-.138C46.54,3424.648,46.364,3424.9,46.25,3424.915Z" transform="translate(-30.264 -3417.115)" fill="#818181"/>
      <path id="Path_591" data-name="Path 591" d="M49.739,3420.935l.363.1,0,.038-.229.088-.146-.191Z" transform="translate(-33.513 -3413.791)" fill="#818181"/>
      <path id="Path_592" data-name="Path 592" d="M91.856,3423.645c-.02-.017-.042-.032-.06-.051-.145-.148-.285-.3-.435-.443a.3.3,0,0,1-.119-.27l.121.028.02-.077c.377-.018.441.281.539.533a.689.689,0,0,1-.016.273Z" transform="translate(-72.249 -3415.56)" fill="#818181"/>
      <path id="Path_593" data-name="Path 593" d="M103.163,3473.771l-.116.091c-.021-.028-.064-.062-.058-.083.01-.038.048-.068.075-.1Z" transform="translate(-83.211 -3463.008)" fill="#818181"/>
    </g>
    <rect id="Rectangle_2256" data-name="Rectangle 2256" width="49" height="49" rx="6" transform="translate(207 28)" fill="#49cbc9"/>
    <g id="Group_1" data-name="Group 1" transform="translate(216.074 41.189)">
      <circle id="Ellipse_3" data-name="Ellipse 3" cx="3.01" cy="3.01" r="3.01" transform="translate(16.717 1.466)" fill="#fff"/>
      <path id="Path_4" data-name="Path 4" d="M743.506,725.557s8.674-5.075,5.46-8.8c-1.886-2.185-5.139-.245-4.952,2.455.313,4.527-3.68,7.043-3.68,7.043Z" transform="translate(-725.492 -706.653)" fill="#fff"/>
      <path id="Path_5" data-name="Path 5" d="M710.881,753.786s2.893-2.214,5.154-.163a4.1,4.1,0,0,1,1.221,3.251l-1.914,1.814Z" transform="translate(-701.037 -737.325)" fill="#fff"/>
      <path id="Path_6" data-name="Path 6" d="M667.4,746.722s5.92-6.4,11.2-7.449,5.321.126,4.238,1.172-7.451,1.744-15.439,9.067c0,0-4.355-5.736-11.226-7.486-5.094-1.3-3-2.255-2.346-2.316C653.833,739.71,662.235,737.913,667.4,746.722Z" transform="translate(-652.85 -725.793)" fill="#fff"/>
      <circle id="Ellipse_4" data-name="Ellipse 4" cx="2.343" cy="2.343" r="2.343" transform="translate(10.624 9.855)" fill="#fff"/>
      <ellipse id="Ellipse_5" data-name="Ellipse 5" cx="1.413" cy="1.225" rx="1.413" ry="1.225" transform="translate(13.067 21.27)" fill="#fff"/>
      <path id="Path_7" data-name="Path 7" d="M673.212,662.661l1.614-.849-.308,1.8,1.306,1.273-1.8.262-.807,1.635-.807-1.635-1.8-.262,1.306-1.273-.308-1.8Z" transform="translate(-667.59 -661.812)" fill="#fff"/>
    </g>
  </g>
</svg>
