<svg id="Group_1087" data-name="Group 1087" xmlns="http://www.w3.org/2000/svg" xmlns:xlink="http://www.w3.org/1999/xlink" width="359.459" height="349.219" viewBox="0 0 359.459 349.219">
  <defs>
    <clipPath id="clip-path">
      <rect id="Rectangle_2582" data-name="Rectangle 2582" width="359.459" height="349.219" fill="none"/>
    </clipPath>
  </defs>
  <g id="Group_1086" data-name="Group 1086" clip-path="url(#clip-path)">
    <path id="Path_1577" data-name="Path 1577" d="M196.629,50.889c-14.325-5.546-44.123-4.4-56.381-1.635-10.105,2.282-20.712,8.774-26.884,18.693C98.552,91.749,61.8,77.9,33.535,89.45S-2.272,117,.554,138.035s20.732,48.414,9.423,76.8S-1.33,260.745,20.344,285.65s113.2,33.854,186.05,8.789c61.924-21.3,86.381,5.735,117.119-4.226,45.256-14.663,42.53-58.763,20.579-82.986-30.014-33.121,5.337-39.137,4.812-83.509-.425-35.954-25.081-56.954-79-56.217-39.56.537-57.053-10.33-73.274-16.612" transform="translate(0 35.42)" fill="#f8f9ff"/>
    <path id="Path_1578" data-name="Path 1578" d="M286.89,267H35.724A13.186,13.186,0,0,1,22.538,253.81V90.582A13.185,13.185,0,0,1,35.724,77.4H286.89a13.184,13.184,0,0,1,13.184,13.182V253.81A13.184,13.184,0,0,1,286.89,267" transform="translate(17.002 58.389)" fill="#fff"/>
    <path id="Rectangle_2577" data-name="Rectangle 2577" d="M7.516,0h262.5a7.516,7.516,0,0,1,7.516,7.516V182.082a7.514,7.514,0,0,1-7.514,7.514H7.515A7.515,7.515,0,0,1,0,182.081V7.516A7.516,7.516,0,0,1,7.516,0Z" transform="translate(39.541 135.789)" fill="none" stroke="#000" stroke-miterlimit="10" stroke-width="1.027"/>
    <rect id="Rectangle_2578" data-name="Rectangle 2578" width="257.801" height="142.065" transform="translate(50.1 146.226)" fill="#ffe180"/>
    <rect id="Rectangle_2579" data-name="Rectangle 2579" width="240.457" height="123.821" transform="translate(58.945 155.624)" fill="#fff"/>
    <path id="Path_1579" data-name="Path 1579" d="M138.682,114.214c-46.072,0-83.419,23.486-83.419,52.458,0,9.716,4.216,18.81,11.537,26.612H210.563c7.321-7.8,11.539-16.9,11.539-26.612,0-28.972-37.349-52.458-83.419-52.458" transform="translate(41.689 86.161)" fill="#bdbcec"/>
    <path id="Path_1580" data-name="Path 1580" d="M111.261,113.1l-51.07,28.809-8.314,28.944,8.016,6.716.344,5.065L66.412,193.7l55.105.812s-6.43-37.612-13.472-39.923-1.625-2.868-7.042-2.307h0s3.2-.818,4.814-5.651,2.228-13.677,2.228-13.677l-.212-4.7,6.281-4.505.139-4.105s-.823-6.165-2.991-6.537" transform="translate(39.135 85.322)" fill="#fff"/>
    <path id="Path_1581" data-name="Path 1581" d="M121.8,66.624a16.551,16.551,0,0,1,2.47-3.333c4.849-5.109,8.3-10.705,9.119-14.482s1.989-16.877-5.868-24.225c-7.951-7.435-18.256-6.447-18.256-6.447S88.911,19.137,87,38.13c0,0-1.633,13.754,8.579,24.484a32.523,32.523,0,0,1,3.711,4.011" transform="translate(65.561 13.649)" fill="#ffe180"/>
    <path id="Path_1582" data-name="Path 1582" d="M124.646,69.439a16.686,16.686,0,0,1,2.47-3.333c4.849-5.109,8.3-10.705,9.121-14.482s1.988-16.877-5.867-24.225c-7.953-7.435-18.258-6.447-18.258-6.447s-20.349,1-22.26,19.993c0,0-1.633,13.754,8.581,24.484a32.524,32.524,0,0,1,3.711,4.011" transform="translate(67.711 15.773)" fill="none" stroke="#000" stroke-miterlimit="10" stroke-width="1.129"/>
    <path id="Rectangle_2580" data-name="Rectangle 2580" d="M4.214,0H20.327a4.212,4.212,0,0,1,4.212,4.212v11.5a4.212,4.212,0,0,1-4.212,4.212H4.213A4.213,4.213,0,0,1,0,15.708V4.214A4.214,4.214,0,0,1,4.214,0Z" transform="translate(168.827 85.213)" fill="none" stroke="#000" stroke-miterlimit="10" stroke-width="1.129"/>
    <line id="Line_1296" data-name="Line 1296" x2="9.674" transform="translate(168.572 95.341)" fill="none" stroke="#000" stroke-miterlimit="10" stroke-width="1.129"/>
    <line id="Line_1297" data-name="Line 1297" y1="10.3" x2="7.714" transform="translate(190.437 11.363)" fill="#fff"/>
    <line id="Line_1298" data-name="Line 1298" y1="10.3" x2="7.714" transform="translate(190.437 11.363)" fill="none" stroke="#ffe180" stroke-miterlimit="10" stroke-width="1.284"/>
    <line id="Line_1299" data-name="Line 1299" y1="17.761" x2="0.868" transform="translate(180.743 0.055)" fill="#fff"/>
    <line id="Line_1300" data-name="Line 1300" y1="17.761" x2="0.868" transform="translate(180.743 0.055)" fill="none" stroke="#ffe180" stroke-miterlimit="10" stroke-width="1.284"/>
    <line id="Line_1301" data-name="Line 1301" x1="7.216" y1="9.118" transform="translate(164.804 11.644)" fill="#fff"/>
    <line id="Line_1302" data-name="Line 1302" x1="7.216" y1="9.118" transform="translate(164.804 11.644)" fill="none" stroke="#ffe180" stroke-miterlimit="10" stroke-width="1.284"/>
    <path id="Path_1583" data-name="Path 1583" d="M111.243,178.1a6.552,6.552,0,1,1-6.551-6.551A6.55,6.55,0,0,1,111.243,178.1Z" transform="translate(74.035 129.413)" fill="none" stroke="#000" stroke-miterlimit="10" stroke-width="1.03"/>
    <path id="Path_1584" data-name="Path 1584" d="M98.136,185.47s-1.1,11.6-9.76,15.854H135.29s-9.761-4.946-8.975-15.854Z" transform="translate(66.669 139.915)" fill="#fff"/>
    <path id="Path_1585" data-name="Path 1585" d="M98.136,185.47s-1.1,11.6-9.76,15.854H135.29s-9.761-4.946-8.975-15.854Z" transform="translate(66.669 139.915)" fill="none" stroke="#000" stroke-miterlimit="10" stroke-width="1.027"/>
    <rect id="Rectangle_2581" data-name="Rectangle 2581" width="66.795" height="7.084" transform="translate(145.015 341.24)" fill="none" stroke="#000" stroke-miterlimit="10" stroke-width="1.019"/>
    <path id="Path_1586" data-name="Path 1586" d="M159.883,143.448s-6.677,10.091-22.5,6.947c-18.76-3.725-13.128-29.067-13.128-29.067s7.995,1.142,12.165-3.551a11.469,11.469,0,0,1,9.46-3.605" transform="translate(93.135 86.092)" fill="none" stroke="#000" stroke-miterlimit="10" stroke-width="1.03"/>
    <path id="Path_1587" data-name="Path 1587" d="M172.23,131.912a7.733,7.733,0,0,0-1.195-7.821s3.016-.663,1.888-6.414c-1.191-6.068-6.416-6.416-9.056-6.791s-2.453-2.453-6.6-5.282-8.868-.944-8.868-.944a23.914,23.914,0,0,1-4.2,1.321s-4.154,1.142-11.267-1.646c-3.46-1.354-11.318-.6-12.205,5.512-.907,6.244,3.151,7.086,3.151,7.086s-5.535,4.332-3.161,8.66" transform="translate(90.615 78.277)" fill="none" stroke="#000" stroke-miterlimit="10" stroke-width="1.027"/>
    <path id="Path_1588" data-name="Path 1588" d="M146.14,122.263s2.637-2.449,3.579.754-.565,8.1-3.579,8.1" transform="translate(110.245 91.558)" fill="#fff"/>
    <path id="Path_1589" data-name="Path 1589" d="M146.14,122.263s2.637-2.449,3.579.754-.565,8.1-3.579,8.1" transform="translate(110.245 91.558)" fill="none" stroke="#000" stroke-miterlimit="10" stroke-width="1.027"/>
    <path id="Path_1590" data-name="Path 1590" d="M129.611,134.87s.837,10.333,9.875,9.174,10.381-10.533,10.381-10.533" transform="translate(97.776 100.718)" fill="none" stroke="#000" stroke-miterlimit="10" stroke-width="1.027"/>
    <path id="Path_1591" data-name="Path 1591" d="M140.958,134.057s11.975-1.707,17.219,6.889c4.384,7.188,6.733,37.047,6.733,37.047" transform="translate(106.336 101.026)" fill="none" stroke="#000" stroke-miterlimit="10" stroke-width="1.027"/>
    <path id="Path_1592" data-name="Path 1592" d="M64.812,144.71s6.137,9.275,20.682,6.386c17.24-3.425,12.065-26.714,12.065-26.714s-7.346,1.049-11.179-3.263a10.544,10.544,0,0,0-8.695-3.316" transform="translate(48.893 88.833)" fill="none" stroke="#000" stroke-miterlimit="10" stroke-width="0.947"/>
    <path id="Path_1593" data-name="Path 1593" d="M64.572,125.24s-2.423-2.251-3.289.693.521,7.442,3.289,7.442" transform="translate(46.038 93.858)" fill="#fff"/>
    <path id="Path_1594" data-name="Path 1594" d="M64.572,125.24s-2.423-2.251-3.289.693.521,7.442,3.289,7.442" transform="translate(46.038 93.858)" fill="none" stroke="#000" stroke-miterlimit="10" stroke-width="0.944"/>
    <path id="Path_1595" data-name="Path 1595" d="M86.245,136.825s-.767,9.5-9.075,8.432-9.54-9.681-9.54-9.681" transform="translate(51.018 102.276)" fill="none" stroke="#000" stroke-miterlimit="10" stroke-width="0.944"/>
    <path id="Path_1596" data-name="Path 1596" d="M77.278,136.08s-11.007-1.57-15.826,6.33c-4.028,6.609-6.189,34.051-6.189,34.051" transform="translate(41.689 102.56)" fill="none" stroke="#000" stroke-miterlimit="10" stroke-width="0.944"/>
    <path id="Path_1597" data-name="Path 1597" d="M100.394,176.851S94.557,146.8,90.136,140.218c-3.216-4.784-10.256-4.784-10.256-4.784" transform="translate(60.26 102.169)" fill="#fff"/>
    <path id="Path_1598" data-name="Path 1598" d="M100.394,176.851S94.557,146.8,90.136,140.218c-3.216-4.784-10.256-4.784-10.256-4.784" transform="translate(60.26 102.169)" fill="none" stroke="#000" stroke-miterlimit="10" stroke-width="0.944"/>
    <path id="Path_1599" data-name="Path 1599" d="M109.013,132.935c12.326-4.139,6.463-13.03.728-20.4-8.732-11.233-24.207-3.549-24.207-3.549s-14.135-2.83-22.449,6.653c-7.049,8.042-7.419,13.193-5.977,24.53s-5.772,20.74-7.214,27.17,3.135,14.74,11.358,15.739" transform="translate(37.44 80.28)" fill="none" stroke="#000" stroke-miterlimit="10" stroke-width="0.947"/>
    <path id="Path_1600" data-name="Path 1600" d="M122.317,149.369s-4.246,6.416-14.309,4.418c-11.926-2.368-8.346-18.482-8.346-18.482s5.081.726,7.733-2.256a7.288,7.288,0,0,1,6.016-2.291s2.277,5.512,7.418,4.853" transform="translate(74.804 98.616)" fill="none" stroke="#000" stroke-miterlimit="10" stroke-width="0.655"/>
    <path id="Path_1601" data-name="Path 1601" d="M113.579,135.9s1.677-1.558,2.275.477-.36,5.149-2.275,5.149" transform="translate(85.682 102.091)" fill="#fff"/>
    <path id="Path_1602" data-name="Path 1602" d="M113.579,135.9s1.677-1.558,2.275.477-.36,5.149-2.275,5.149" transform="translate(85.682 102.091)" fill="none" stroke="#000" stroke-miterlimit="10" stroke-width="0.653"/>
    <path id="Path_1603" data-name="Path 1603" d="M103.07,143.916s.532,6.57,6.277,5.832,6.6-6.7,6.6-6.7" transform="translate(77.754 107.915)" fill="none" stroke="#000" stroke-miterlimit="10" stroke-width="0.653"/>
    <path id="Path_1604" data-name="Path 1604" d="M110.284,143.4s7.616-1.086,10.949,4.379c2.788,4.572,1.714,5.037,1.714,5.037" transform="translate(83.196 108.112)" fill="none" stroke="#000" stroke-miterlimit="10" stroke-width="0.653"/>
    <path id="Path_1605" data-name="Path 1605" d="M108.037,142.952s-4.87,0-7.095,3.312c-3.058,4.549-7.1,25.342-7.1,25.342" transform="translate(70.796 107.84)" fill="#fff"/>
    <path id="Path_1606" data-name="Path 1606" d="M108.037,142.952s-4.87,0-7.095,3.312c-3.058,4.549-7.1,25.342-7.1,25.342" transform="translate(70.796 107.84)" fill="none" stroke="#000" stroke-miterlimit="10" stroke-width="0.653"/>
    <path id="Path_1607" data-name="Path 1607" d="M97.932,137.91s-1.477-7.3,6.754-11.021,13.551-3.823,18.649-1.291,8.137,9.089,6.451,13.7" transform="translate(73.801 93.444)" fill="none" stroke="#000" stroke-miterlimit="10" stroke-width="0.639"/>
    <path id="Path_1608" data-name="Path 1608" d="M137.424,133.354s-7.661,0-11.158,5.207c-4.812,7.16-11.161,39.858-11.161,39.858" transform="translate(86.833 100.6)" fill="#fff"/>
    <path id="Path_1609" data-name="Path 1609" d="M137.424,133.354s-7.661,0-11.158,5.207c-4.812,7.16-11.161,39.858-11.161,39.858" transform="translate(86.833 100.6)" fill="none" stroke="#000" stroke-miterlimit="10" stroke-width="1.027"/>
  </g>
</svg>
